<svg xmlns="http://www.w3.org/2000/svg" xmlns:xlink="http://www.w3.org/1999/xlink" width="258" zoomAndPan="magnify" viewBox="0 0 193.5 193.499992" height="258" preserveAspectRatio="xMidYMid meet" version="1.0"><defs><g/><clipPath id="17b098a0e8"><path d="M 2.875 0 L 193 0 L 193 190.125 L 2.875 190.125 Z M 2.875 0 " clip-rule="nonzero"/></clipPath><clipPath id="d46f1d0571"><path d="M 97.9375 0 C 45.4375 0 2.875 42.5625 2.875 95.0625 C 2.875 147.5625 45.4375 190.125 97.9375 190.125 C 150.441406 190.125 193 147.5625 193 95.0625 C 193 42.5625 150.441406 0 97.9375 0 Z M 97.9375 0 " clip-rule="nonzero"/></clipPath><clipPath id="b109fb4345"><path d="M 2.875 0 L 192.886719 0 L 192.886719 190.007812 L 2.875 190.007812 Z M 2.875 0 " clip-rule="nonzero"/></clipPath><clipPath id="54071bc618"><path d="M 97.933594 0 C 45.433594 0 2.875 42.558594 2.875 95.058594 C 2.875 147.554688 45.433594 190.113281 97.933594 190.113281 C 150.433594 190.113281 192.992188 147.554688 192.992188 95.058594 C 192.992188 42.558594 150.433594 0 97.933594 0 Z M 97.933594 0 " clip-rule="nonzero"/></clipPath><clipPath id="d3bfbce3fa"><path d="M 31.15625 28.277344 L 164.722656 28.277344 L 164.722656 161.847656 L 31.15625 161.847656 Z M 31.15625 28.277344 " clip-rule="nonzero"/></clipPath><clipPath id="38ff96f301"><path d="M 97.9375 28.277344 C 61.054688 28.277344 31.15625 58.179688 31.15625 95.0625 C 31.15625 131.945312 61.054688 161.847656 97.9375 161.847656 C 134.824219 161.847656 164.722656 131.945312 164.722656 95.0625 C 164.722656 58.179688 134.824219 28.277344 97.9375 28.277344 Z M 97.9375 28.277344 " clip-rule="nonzero"/></clipPath><clipPath id="a1bfb61ed6"><path d="M 31.15625 28.277344 L 164.71875 28.277344 L 164.71875 161.84375 L 31.15625 161.84375 Z M 31.15625 28.277344 " clip-rule="nonzero"/></clipPath><clipPath id="ca19962460"><path d="M 97.9375 28.277344 C 61.054688 28.277344 31.15625 58.179688 31.15625 95.0625 C 31.15625 131.945312 61.054688 161.84375 97.9375 161.84375 C 134.820312 161.84375 164.71875 131.945312 164.71875 95.0625 C 164.71875 58.179688 134.820312 28.277344 97.9375 28.277344 Z M 97.9375 28.277344 " clip-rule="nonzero"/></clipPath><clipPath id="70a6804559"><path d="M 16.890625 91.15625 L 24.703125 91.15625 L 24.703125 98.96875 L 16.890625 98.96875 Z M 16.890625 91.15625 " clip-rule="nonzero"/></clipPath><clipPath id="dabb725aa8"><path d="M 20.796875 91.15625 C 18.636719 91.15625 16.890625 92.90625 16.890625 95.0625 C 16.890625 97.21875 18.636719 98.96875 20.796875 98.96875 C 22.953125 98.96875 24.703125 97.21875 24.703125 95.0625 C 24.703125 92.90625 22.953125 91.15625 20.796875 91.15625 Z M 20.796875 91.15625 " clip-rule="nonzero"/></clipPath><clipPath id="06b2758789"><path d="M 172.457031 91.15625 L 180.269531 91.15625 L 180.269531 98.96875 L 172.457031 98.96875 Z M 172.457031 91.15625 " clip-rule="nonzero"/></clipPath><clipPath id="e28afd7946"><path d="M 176.363281 91.15625 C 174.203125 91.15625 172.457031 92.90625 172.457031 95.0625 C 172.457031 97.21875 174.203125 98.96875 176.363281 98.96875 C 178.519531 98.96875 180.269531 97.21875 180.269531 95.0625 C 180.269531 92.90625 178.519531 91.15625 176.363281 91.15625 Z M 176.363281 91.15625 " clip-rule="nonzero"/></clipPath><clipPath id="afc4407801"><path d="M 45.828125 73.742188 L 146.816406 73.742188 L 146.816406 119 L 45.828125 119 Z M 45.828125 73.742188 " clip-rule="nonzero"/></clipPath></defs><g clip-path="url(#17b098a0e8)"><g clip-path="url(#d46f1d0571)"><path fill="#232cb5" d="M 2.875 0 L 193 0 L 193 190.125 L 2.875 190.125 Z M 2.875 0 " fill-opacity="1" fill-rule="nonzero"/></g></g><g clip-path="url(#b109fb4345)"><g clip-path="url(#54071bc618)"><path stroke-linecap="butt" transform="matrix(0.748067, 0, 0, 0.748067, 2.876076, 0)" fill="none" stroke-linejoin="miter" d="M 127.070869 0 C 56.889985 0 -0.0014387 56.891424 -0.0014387 127.072308 C -0.0014387 197.247971 56.889985 254.139394 127.070869 254.139394 C 197.251754 254.139394 254.143178 197.247971 254.143178 127.072308 C 254.143178 56.891424 197.251754 0 127.070869 0 Z M 127.070869 0 " stroke="#232cb5" stroke-width="4" stroke-opacity="1" stroke-miterlimit="4"/></g></g><g clip-path="url(#d3bfbce3fa)"><g clip-path="url(#38ff96f301)"><path fill="#333333" d="M 31.15625 28.277344 L 164.722656 28.277344 L 164.722656 161.847656 L 31.15625 161.847656 Z M 31.15625 28.277344 " fill-opacity="1" fill-rule="nonzero"/></g></g><g clip-path="url(#a1bfb61ed6)"><g clip-path="url(#ca19962460)"><path stroke-linecap="butt" transform="matrix(0.748067, 0, 0, 0.748067, 31.155009, 28.278934)" fill="none" stroke-linejoin="miter" d="M 89.273415 -0.00212585 C 39.969255 -0.00212585 0.0016591 39.970692 0.0016591 89.274852 C 0.0016591 138.579012 39.969255 178.546608 89.273415 178.546608 C 138.577575 178.546608 178.545171 138.579012 178.545171 89.274852 C 178.545171 39.970692 138.577575 -0.00212585 89.273415 -0.00212585 Z M 89.273415 -0.00212585 " stroke="#333333" stroke-width="4" stroke-opacity="1" stroke-miterlimit="4"/></g></g><g clip-path="url(#70a6804559)"><g clip-path="url(#dabb725aa8)"><path fill="#ffffff" d="M 16.890625 91.15625 L 24.703125 91.15625 L 24.703125 98.96875 L 16.890625 98.96875 Z M 16.890625 91.15625 " fill-opacity="1" fill-rule="nonzero"/></g></g><g clip-path="url(#06b2758789)"><g clip-path="url(#e28afd7946)"><path fill="#ffffff" d="M 172.457031 91.15625 L 180.269531 91.15625 L 180.269531 98.96875 L 172.457031 98.96875 Z M 172.457031 91.15625 " fill-opacity="1" fill-rule="nonzero"/></g></g><g clip-path="url(#afc4407801)"><path fill="#ffffff" d="M 146.570312 101.738281 C 146.160156 100.996094 146.472656 100.238281 146.355469 99.496094 C 147.03125 98.960938 146.128906 98.367188 146.386719 97.878906 C 146.710938 97.265625 146.863281 96.800781 146.074219 96.472656 C 146.03125 96.453125 146.003906 96.230469 146.054688 96.171875 C 146.664062 95.4375 146.164062 94.828125 145.785156 94.277344 C 145.386719 93.699219 144.933594 93.0625 144.34375 92.757812 C 144.015625 92.585938 143.734375 92.136719 143.449219 92.203125 C 142.753906 92.359375 142.707031 91.710938 142.355469 91.46875 C 142.035156 91.25 141.777344 91.003906 141.34375 91.042969 C 141.160156 91.0625 140.804688 90.921875 140.800781 90.832031 C 140.75 90.136719 139.917969 90.640625 139.828125 90.207031 C 139.65625 89.40625 139.050781 89.859375 138.65625 89.71875 C 138.605469 89.703125 138.53125 89.648438 138.535156 89.617188 C 138.546875 89.445312 138.582031 89.277344 138.605469 89.109375 C 138.414062 89.175781 138.210938 89.222656 138.03125 89.316406 C 137.707031 89.488281 137.609375 89.34375 137.445312 89.058594 C 137.1875 88.613281 137.164062 87.957031 136.546875 87.796875 C 136.085938 87.679688 135.585938 87.554688 135.125 87.617188 C 134.574219 87.691406 134.730469 86.648438 134.078125 87.050781 C 133.628906 86.277344 132.367188 86.332031 132.222656 85.222656 C 132.203125 85.082031 131.878906 84.839844 131.847656 84.859375 C 131.40625 85.167969 131.320312 84.855469 131.109375 84.554688 C 130.945312 84.316406 130.597656 84.1875 130.316406 84.042969 C 129.667969 83.710938 128.992188 83.425781 128.359375 83.0625 C 127.929688 82.8125 127.601562 82.34375 127.152344 82.195312 C 125.972656 81.796875 125.117188 80.941406 124.121094 80.285156 C 123.324219 79.761719 122.726562 79.128906 122.273438 78.320312 C 122.152344 78.101562 121.996094 77.902344 121.859375 77.695312 C 121.1875 78.191406 121.511719 77.226562 121.152344 77.214844 C 120.910156 77.207031 120.558594 77.183594 120.453125 77.03125 C 120.269531 76.769531 120.101562 76.429688 120.277344 76.046875 C 120.304688 75.988281 120.097656 75.777344 119.964844 75.703125 C 119.511719 75.453125 119.0625 75.179688 118.574219 75.011719 C 118.265625 74.90625 118.113281 74.78125 118.121094 74.464844 C 118.136719 73.847656 117.542969 73.972656 117.242188 73.742188 C 117.089844 74.007812 116.9375 74.273438 116.792969 74.542969 C 116.769531 74.585938 116.8125 74.65625 116.792969 74.703125 C 116.734375 74.867188 116.664062 75.023438 116.597656 75.183594 C 116.554688 75.03125 116.550781 74.859375 116.46875 74.734375 C 116.371094 74.582031 116.203125 74.359375 116.074219 74.367188 C 115.675781 74.390625 115.832031 74.738281 115.796875 74.976562 C 115.144531 75.261719 115.515625 75.746094 115.585938 76.171875 C 115.730469 76.027344 115.855469 75.804688 116.027344 75.757812 C 116.230469 75.703125 116.03125 76.417969 116.472656 76.097656 C 116.941406 75.757812 117.300781 74.960938 117.9375 75.890625 C 117.9375 75.894531 118.019531 75.859375 118.046875 75.824219 C 118.144531 75.695312 118.234375 75.554688 118.328125 75.421875 C 118.359375 75.628906 118.488281 75.898438 118.402344 76.027344 C 118.238281 76.269531 117.949219 76.601562 117.71875 76.59375 C 117.183594 76.574219 117.101562 76.945312 116.96875 77.265625 C 116.851562 77.550781 116.832031 77.878906 116.769531 78.1875 C 116.664062 78.679688 116.378906 78.898438 115.859375 78.90625 C 115.4375 78.910156 115.140625 78.773438 114.863281 78.476562 C 114.636719 78.238281 114.46875 78.382812 114.5 78.652344 C 114.59375 79.433594 114.714844 80.210938 114.84375 80.984375 C 114.855469 81.066406 114.976562 81.164062 115.066406 81.191406 C 115.621094 81.359375 115.839844 81.757812 115.816406 82.300781 C 115.785156 83.078125 116.59375 82.351562 116.816406 82.894531 C 117.050781 83.46875 117.46875 84.046875 117.960938 84.414062 C 119.402344 85.484375 120.71875 86.683594 122 87.933594 C 122.621094 88.539062 122.628906 88.515625 122.136719 89.230469 C 121.820312 89.6875 122.257812 90.015625 122.375 90.402344 C 122.832031 90.367188 122.699219 90.023438 122.71875 89.757812 C 122.957031 89.6875 123.199219 89.613281 123.441406 89.554688 C 123.582031 89.523438 123.734375 89.519531 123.878906 89.503906 C 123.835938 89.628906 123.816406 89.777344 123.742188 89.878906 C 123.53125 90.171875 123.351562 90.558594 123.0625 90.699219 C 122.445312 90.996094 122.804688 91.207031 122.988281 91.542969 C 123.257812 92.027344 124.371094 91.984375 123.957031 92.773438 C 123.65625 93.34375 122.867188 92.917969 122.304688 93.007812 C 122.089844 93.039062 121.800781 93.121094 121.667969 93.019531 C 121.304688 92.738281 121.003906 92.867188 120.6875 93.035156 C 120.050781 93.367188 119.5625 93.070312 119.082031 92.691406 C 118.941406 92.582031 118.765625 92.441406 118.605469 92.441406 C 118.414062 92.445312 118.222656 92.582031 118.03125 92.664062 C 117.984375 92.46875 117.925781 92.101562 117.898438 92.105469 C 117.25 92.164062 116.648438 91.242188 115.976562 91.996094 C 115.230469 91.496094 115.175781 92.429688 114.75 92.601562 C 114.425781 92.730469 114.269531 92.695312 114.152344 92.355469 C 114.113281 92.234375 113.941406 92.15625 113.828125 92.058594 L 113.855469 92.03125 C 113.84375 92.039062 113.835938 92.046875 113.828125 92.058594 C 113.699219 91.953125 113.566406 91.84375 113.4375 91.738281 C 113.359375 91.949219 113.28125 92.15625 113.203125 92.363281 C 113.304688 92.367188 113.410156 92.371094 113.515625 92.371094 C 113.511719 92.375 113.511719 92.375 113.507812 92.378906 L 113.515625 92.371094 C 113.472656 92.460938 113.433594 92.546875 113.394531 92.632812 C 113.320312 92.542969 113.246094 92.453125 113.171875 92.363281 L 113.195312 92.386719 C 113.195312 92.378906 113.199219 92.371094 113.203125 92.363281 C 113.191406 92.363281 113.183594 92.363281 113.171875 92.363281 C 112.59375 91.753906 112.367188 91.738281 111.828125 92.042969 C 111.480469 92.242188 111.8125 92.371094 111.785156 92.511719 C 111.71875 92.816406 111.398438 92.914062 111.21875 92.65625 C 110.96875 92.300781 110.691406 92.355469 110.375 92.449219 C 110.175781 92.507812 109.90625 92.710938 109.796875 92.644531 C 109.433594 92.417969 109.128906 91.878906 108.792969 91.875 C 108.46875 91.871094 108.15625 92.40625 107.792969 92.636719 C 107.6875 92.703125 107.394531 92.582031 107.25 92.46875 C 106.976562 92.25 106.753906 91.964844 106.492188 91.726562 C 106.222656 91.480469 105.945312 91.289062 105.953125 91.914062 C 105.957031 92.097656 106.007812 92.394531 105.644531 92.199219 C 105.363281 92.050781 105.089844 91.886719 104.808594 91.742188 C 104.648438 91.664062 104.429688 91.515625 104.316406 91.570312 C 104.015625 91.714844 104.066406 91.949219 104.257812 92.207031 C 104.320312 92.289062 104.21875 92.492188 104.191406 92.636719 C 104.105469 92.578125 104.015625 92.523438 103.9375 92.453125 C 103.640625 92.199219 103.636719 91.691406 103.035156 91.65625 C 102.695312 91.636719 102.457031 92.1875 101.964844 91.679688 C 101.535156 91.234375 101.335938 92.109375 100.96875 92.289062 C 100.921875 92.3125 100.898438 92.382812 100.851562 92.402344 C 100.472656 92.574219 100.101562 92.816406 99.703125 92.871094 C 99.480469 92.898438 99.214844 92.613281 98.96875 92.46875 C 98.550781 92.226562 98.183594 91.984375 97.738281 92.507812 C 97.308594 93.007812 96.867188 92.5625 96.449219 92.371094 C 96.347656 92.183594 96.671875 91.554688 96.019531 91.953125 C 95.027344 92.554688 93.976562 92.871094 92.808594 92.707031 C 92.699219 92.691406 92.570312 92.675781 92.484375 92.71875 C 91.886719 93.050781 91.699219 92.976562 92.035156 92.300781 C 92.046875 92.28125 91.808594 92.097656 91.664062 92.050781 C 90.964844 91.808594 90.664062 92.800781 90.085938 92.648438 C 89.382812 92.464844 88.808594 93.304688 88.125 92.792969 C 87.652344 93.402344 86.726562 92.421875 86.328125 93.304688 C 86.207031 93.230469 86.011719 93.175781 85.984375 93.078125 C 85.886719 92.742188 85.726562 92.664062 85.398438 92.761719 C 85 92.878906 84.542969 92.871094 84.191406 93.0625 C 83.742188 93.316406 83.347656 92.453125 82.988281 93.046875 C 82.660156 93.582031 82.089844 92.613281 81.800781 93.277344 C 81.78125 93.320312 81.441406 93.167969 81.304688 93.226562 C 80.488281 93.589844 80.1875 93.648438 79.765625 93.046875 C 79.472656 92.632812 79.132812 92.640625 78.777344 92.523438 C 78.679688 93.417969 77.949219 92.296875 77.738281 92.847656 C 77.722656 92.886719 74.578125 93.921875 74.535156 93.90625 C 74.390625 93.847656 74.257812 93.773438 74.117188 93.707031 C 74.019531 93.878906 73.910156 94.050781 73.828125 94.230469 C 73.75 94.394531 73.785156 94.734375 73.464844 94.488281 C 72.792969 93.96875 72.222656 94.210938 71.605469 94.613281 C 71.53125 94.664062 70.988281 95.40625 70.78125 94.546875 C 70.773438 94.507812 70.152344 94.628906 69.816406 94.644531 C 69.726562 94.648438 69.628906 94.550781 69.546875 94.480469 C 69.257812 94.238281 68.96875 93.992188 68.679688 93.746094 C 68.566406 94.121094 68.316406 94.429688 67.945312 94.460938 C 67.507812 94.5 67.210938 94.664062 66.910156 94.972656 C 66.546875 95.335938 65.996094 95.167969 65.535156 95.269531 C 65.269531 95.328125 64.882812 95.058594 64.683594 95.171875 C 64.460938 95.300781 64.398438 95.695312 64.238281 95.960938 C 64.191406 96.046875 64.054688 96.132812 63.972656 96.125 C 63.886719 96.113281 63.742188 95.976562 63.75 95.914062 C 63.78125 95.667969 63.992188 95.292969 63.910156 95.21875 C 63.523438 94.878906 63.460938 95.441406 63.226562 95.558594 C 62.730469 95.800781 62.394531 95.578125 62.066406 95.269531 C 61.640625 94.867188 61.726562 95.28125 61.648438 95.507812 C 61.445312 96.109375 61.371094 96.152344 61.015625 95.660156 C 60.742188 95.289062 60.441406 95.199219 60.292969 95.558594 C 59.910156 96.488281 59.386719 96.46875 58.648438 96.023438 C 58.53125 95.953125 58.265625 96.125 58.066406 96.183594 C 58.308594 96.730469 57.25 97.191406 57.953125 97.789062 C 57.988281 97.820312 57.855469 98.160156 57.730469 98.238281 C 57.464844 98.402344 57.160156 98.511719 56.855469 98.601562 C 56.40625 98.730469 55.945312 98.84375 55.480469 98.921875 C 55.382812 98.9375 55.183594 98.777344 55.164062 98.675781 C 55.144531 98.574219 55.308594 98.335938 55.378906 98.34375 C 56.011719 98.398438 56.511719 98.078125 57.015625 97.785156 C 57.296875 97.621094 57.582031 97.402344 57.285156 97.011719 C 57.046875 96.699219 56.851562 96.636719 56.511719 96.953125 C 56.308594 97.144531 55.917969 97.199219 55.613281 97.195312 C 55.472656 97.195312 55.324219 96.761719 55.199219 96.773438 C 54.953125 96.792969 54.730469 97 54.484375 97.101562 C 54.289062 97.179688 54.078125 97.261719 53.875 97.269531 C 52.792969 97.308594 51.804688 97.546875 51.0625 98.425781 C 51.027344 98.46875 50.820312 98.378906 50.691406 98.339844 C 50.351562 98.238281 50.117188 98.398438 50.1875 98.714844 C 50.226562 98.894531 50.570312 99.152344 50.734375 99.125 C 51.144531 99.0625 51.523438 98.8125 51.929688 98.726562 C 52.023438 98.707031 52.339844 99.105469 52.296875 99.214844 C 52.195312 99.476562 51.984375 99.746094 51.742188 99.898438 C 51.011719 100.363281 50.980469 100.40625 51.472656 101.230469 C 51.472656 101.230469 51.46875 101.230469 51.46875 101.230469 C 51.261719 101.707031 51.15625 102.269531 50.832031 102.644531 C 50.246094 103.328125 49.535156 103.902344 48.871094 104.519531 C 49.136719 104.628906 49.402344 104.734375 49.664062 104.84375 C 49.933594 104.953125 50.207031 105.066406 50.476562 105.179688 C 50.53125 105.589844 50.40625 105.960938 50.023438 106.109375 C 49.371094 106.355469 49.246094 106.882812 49.164062 107.460938 C 48.976562 107.507812 48.765625 107.527344 48.605469 107.621094 C 48.546875 107.65625 48.605469 107.882812 48.609375 108.023438 C 48.691406 108.003906 48.804688 108.011719 48.851562 107.960938 C 48.976562 107.816406 49.078125 107.644531 49.1875 107.484375 C 49.535156 107.566406 49.644531 108.386719 50.207031 107.808594 C 50.316406 107.695312 50.460938 107.605469 50.609375 107.554688 C 51.027344 107.410156 51.644531 107.519531 51.523438 106.75 C 51.511719 106.6875 51.65625 106.53125 51.71875 106.535156 C 52.484375 106.585938 52.730469 105.917969 53.09375 105.480469 C 53.320312 105.210938 53.375 105.355469 53.550781 105.4375 C 54.007812 105.660156 54.519531 105.949219 54.5 105.035156 C 54.667969 105.035156 54.941406 105.101562 54.984375 105.027344 C 55.085938 104.859375 55.058594 104.617188 55.128906 104.421875 C 55.144531 104.378906 55.367188 104.363281 55.457031 104.40625 C 55.636719 104.496094 55.773438 104.703125 55.953125 104.742188 C 56.382812 104.84375 56.542969 105.03125 56.332031 105.359375 C 56.144531 105.652344 55.871094 105.894531 55.667969 106.179688 C 55.566406 106.320312 55.535156 106.515625 55.472656 106.6875 C 55.664062 106.691406 55.878906 106.757812 56.039062 106.695312 C 56.433594 106.539062 56.804688 106.332031 57.179688 106.132812 C 57.226562 106.109375 57.226562 105.996094 57.25 105.921875 C 56.449219 105.757812 57.164062 105.300781 57.09375 104.992188 C 56.984375 104.527344 57.285156 104.417969 57.652344 104.667969 C 58.292969 105.105469 58.476562 104.625 58.699219 104.199219 C 58.789062 104.152344 58.921875 104.125 58.953125 104.054688 C 59.324219 103.210938 59.324219 103.207031 59.902344 103.910156 C 59.96875 103.992188 60.050781 104.066406 60.121094 104.152344 C 60.539062 104.652344 60.597656 104.453125 60.71875 103.929688 C 60.824219 103.464844 61.355469 103.355469 61.890625 103.542969 C 62.644531 103.800781 63.378906 103.882812 64.164062 103.582031 C 64.847656 103.320312 65.589844 103.199219 66.304688 103.015625 L 66.933594 102.820312 C 67.101562 102.730469 67.277344 102.5625 67.441406 102.574219 C 67.589844 102.582031 67.796875 102.757812 67.855469 102.90625 C 68.007812 103.292969 68.09375 103.707031 68.203125 104.109375 C 68.273438 104.355469 68.34375 104.8125 68.414062 104.8125 C 68.882812 104.8125 69.347656 104.714844 69.816406 104.652344 C 69.777344 104.507812 69.78125 104.273438 69.695312 104.238281 C 69.460938 104.136719 69.171875 104.164062 68.941406 104.058594 C 68.570312 103.890625 68.535156 103.648438 68.859375 103.34375 C 68.9375 103.269531 68.886719 103.054688 68.886719 102.894531 C 69.210938 102.9375 69.726562 103.089844 69.792969 102.980469 C 70.121094 102.425781 70.734375 102.75 71.160156 102.425781 C 71.589844 102.105469 72.230469 102.066406 72.785156 101.925781 C 72.863281 101.90625 73.039062 101.980469 73.050781 102.039062 C 73.082031 102.175781 73.085938 102.425781 73.019531 102.457031 C 72.71875 102.597656 72.503906 102.710938 72.429688 103.113281 C 72.355469 103.523438 72.261719 103.503906 71.8125 103.121094 C 71.339844 102.714844 71.105469 102.785156 70.824219 103.410156 C 70.769531 103.535156 70.707031 103.652344 70.644531 103.769531 C 70.339844 103.554688 70.125 103.605469 70.238281 103.996094 C 70.289062 104.167969 70.605469 104.351562 70.808594 104.359375 C 71.324219 104.386719 71.945312 104.121094 72.335938 104.328125 C 72.949219 104.65625 73.355469 104.457031 73.824219 104.191406 C 74.367188 103.882812 74.894531 103.550781 75.433594 103.226562 C 75.488281 103.433594 75.527344 103.761719 75.605469 103.773438 C 76.9375 103.941406 78.28125 104.019531 79.578125 103.566406 C 80.359375 103.289062 80.34375 103.300781 81.421875 103.429688 C 82.042969 103.503906 82.871094 103.648438 83.269531 103.332031 C 83.804688 102.90625 84.085938 103.21875 84.503906 103.285156 C 85.007812 103.363281 85.585938 103.808594 85.90625 103.6875 C 87.015625 103.273438 88.246094 103.5625 89.308594 103 C 89.445312 102.925781 89.6875 103 89.867188 103.046875 C 90.679688 103.261719 90.675781 103.269531 90.878906 102.457031 C 90.914062 102.304688 90.957031 102.027344 91.003906 102.027344 C 91.628906 102.007812 91.808594 101.433594 92.1875 101.117188 C 92.253906 101.0625 92.460938 101.105469 92.542969 101.171875 C 92.632812 101.242188 92.730469 101.453125 92.691406 101.511719 C 92.429688 101.871094 92.136719 102.207031 91.851562 102.550781 C 92.148438 102.753906 92.617188 103.175781 92.703125 103.105469 C 93.40625 102.558594 94.203125 103.625 94.917969 102.917969 C 95.070312 102.769531 95.691406 103.183594 96.097656 103.183594 C 96.503906 103.1875 96.910156 102.949219 97.324219 102.910156 C 97.910156 102.855469 98.472656 103 99.054688 103.128906 C 99.523438 103.234375 100.09375 102.808594 100.636719 102.683594 C 100.878906 102.625 101.164062 102.71875 101.425781 102.765625 C 102.101562 102.875 102.773438 103.019531 103.457031 103.097656 C 103.632812 103.121094 103.828125 102.960938 104.019531 102.886719 C 104.464844 102.722656 104.90625 102.441406 105.355469 102.425781 C 105.71875 102.417969 106 103.164062 106.511719 102.628906 C 107.273438 103.292969 108.015625 102.859375 108.824219 102.71875 C 109.234375 102.648438 109.679688 102.472656 110.160156 102.53125 C 110.609375 102.582031 111.082031 102.3125 111.554688 102.265625 C 111.796875 102.242188 112.089844 102.339844 112.296875 102.476562 C 112.882812 102.851562 113.535156 102.609375 114.148438 102.683594 C 114.460938 102.722656 114.804688 102.523438 115.199219 102.707031 C 115.519531 102.855469 115.929688 102.800781 116.292969 102.871094 C 117.183594 103.046875 118.128906 102.625 119.011719 103.152344 C 119.1875 103.261719 119.617188 102.871094 119.882812 102.925781 C 120.1875 102.988281 120.417969 103.34375 120.722656 103.46875 C 120.832031 103.515625 121.066406 103.277344 121.242188 103.167969 C 121.917969 102.738281 122.058594 102.820312 122.09375 103.667969 C 122.109375 103.976562 122.605469 104.175781 122.960938 104.09375 C 123.410156 103.992188 123.730469 103.28125 124.308594 103.800781 C 123.976562 104.109375 123.660156 104.4375 123.308594 104.726562 C 122.726562 105.199219 122.179688 105.894531 121.519531 106.042969 C 120.78125 106.210938 120.476562 106.761719 119.941406 107.078125 C 118.96875 106.644531 118.9375 107.78125 118.367188 108.027344 C 118.226562 108.089844 118.101562 108.34375 117.996094 108.328125 C 116.835938 108.144531 116.375 109.109375 115.703125 109.707031 C 115.050781 110.28125 114.636719 111.121094 113.714844 111.398438 C 113.535156 111.453125 113.261719 111.804688 113.285156 111.84375 C 113.757812 112.527344 112.625 112.394531 112.773438 112.886719 C 112.121094 113 112.25 113.589844 112.0625 114.003906 C 111.914062 114.332031 112.082031 114.398438 112.292969 114.355469 C 112.890625 114.246094 113.3125 114.621094 113.785156 114.847656 C 114.203125 115.050781 114.128906 115.316406 113.796875 115.570312 C 113.667969 115.667969 113.574219 115.808594 113.441406 115.902344 C 113.183594 116.085938 112.914062 116.25 112.648438 116.421875 C 112.886719 116.539062 113.207031 116.605469 113.335938 116.796875 C 113.429688 116.933594 113.277344 117.246094 113.226562 117.476562 C 113.066406 118.207031 113.453125 118.785156 114.113281 118.59375 C 114.632812 118.441406 115.007812 118.445312 115.394531 118.753906 C 115.738281 119.023438 116.054688 119.046875 116.433594 118.824219 C 116.597656 118.734375 116.914062 118.65625 117.007812 118.742188 C 117.570312 119.246094 118.035156 118.8125 118.488281 118.601562 C 118.941406 118.390625 119.320312 118.101562 119.824219 118.515625 C 119.941406 118.613281 120.363281 118.535156 120.484375 118.398438 C 121.046875 117.757812 122.054688 117.695312 122.449219 116.851562 C 122.492188 116.761719 122.761719 116.675781 122.855469 116.726562 C 123.46875 117.046875 123.953125 116.683594 124.183594 116.273438 C 124.5 115.714844 125.011719 115.453125 125.46875 115.136719 C 125.914062 114.828125 126.222656 114.328125 126.855469 114.234375 C 127.300781 114.167969 127.816406 113.933594 128.09375 113.601562 C 128.382812 113.257812 128.421875 112.710938 128.5625 112.25 C 128.597656 112.148438 128.578125 112.007812 128.644531 111.941406 C 128.847656 111.738281 129.015625 111.058594 129.347656 111.894531 C 129.429688 112.109375 129.84375 112.191406 130.105469 112.332031 C 130.203125 112.007812 131.113281 112.253906 130.660156 111.542969 C 131.132812 111.476562 131.613281 111.433594 132.082031 111.335938 C 132.21875 111.304688 132.402344 111.144531 132.429688 111.015625 C 132.550781 110.480469 133.003906 110.527344 133.371094 110.34375 C 134.019531 110.015625 134.582031 109.519531 135.1875 109.105469 C 135.339844 109 135.621094 108.824219 135.664062 108.863281 C 136.117188 109.304688 136.390625 109.019531 136.753906 108.714844 C 137.140625 108.390625 137.585938 108.035156 138.058594 107.9375 C 139.605469 107.621094 139.707031 107.617188 140.4375 106.828125 C 140.511719 106.746094 140.632812 106.679688 140.742188 106.65625 C 141.746094 106.425781 142.625 105.90625 143.53125 105.464844 C 145.125 104.683594 145.097656 104.65625 146.335938 103.082031 C 146.6875 102.636719 146.808594 102.171875 146.570312 101.738281 Z M 115.929688 75.214844 C 115.898438 75.148438 115.871094 75.082031 115.84375 75.011719 C 115.910156 75.042969 115.980469 75.070312 116.046875 75.097656 C 116.007812 75.136719 115.96875 75.175781 115.929688 75.214844 Z M 116.949219 80.851562 C 116.917969 80.8125 116.859375 80.769531 116.863281 80.730469 C 116.863281 80.691406 116.929688 80.65625 116.964844 80.621094 C 116.996094 80.660156 117.027344 80.703125 117.058594 80.742188 C 117.019531 80.777344 116.984375 80.816406 116.949219 80.851562 Z M 117.5 77.097656 C 117.53125 77.066406 117.5625 77.023438 117.605469 77.003906 C 117.625 76.996094 117.664062 77.03125 117.695312 77.050781 C 117.695312 77.085938 117.695312 77.121094 117.695312 77.15625 C 117.628906 77.136719 117.5625 77.117188 117.5 77.097656 Z M 119.90625 78.871094 C 119.878906 78.835938 119.835938 78.804688 119.824219 78.765625 C 119.816406 78.746094 119.851562 78.707031 119.867188 78.675781 C 119.898438 78.679688 119.933594 78.683594 119.964844 78.683594 C 119.945312 78.746094 119.925781 78.808594 119.90625 78.871094 Z M 122.453125 89.617188 C 122.492188 89.578125 122.535156 89.539062 122.578125 89.5 C 122.609375 89.570312 122.640625 89.640625 122.667969 89.714844 C 122.597656 89.679688 122.523438 89.648438 122.453125 89.617188 Z M 50.503906 105.136719 C 50.503906 105.042969 50.5 104.953125 50.5 104.859375 C 50.59375 104.859375 50.683594 104.863281 50.777344 104.863281 C 50.6875 104.953125 50.59375 105.042969 50.503906 105.136719 Z M 50.8125 104.820312 C 50.78125 104.75 50.75 104.683594 50.714844 104.613281 C 50.644531 104.6875 50.570312 104.761719 50.5 104.835938 C 50.402344 104.683594 50.300781 104.535156 50.203125 104.382812 C 50.492188 104.378906 50.78125 104.371094 51.070312 104.367188 C 50.984375 104.519531 50.898438 104.667969 50.8125 104.820312 Z M 51.875 104.007812 C 51.90625 103.976562 51.9375 103.941406 51.96875 103.90625 C 52.003906 103.949219 52.035156 103.984375 52.0625 104.023438 C 52 104.019531 51.9375 104.015625 51.875 104.007812 Z M 51.480469 101.230469 C 51.484375 101.125 51.453125 101 51.503906 100.925781 C 51.648438 100.707031 51.828125 100.515625 51.992188 100.3125 C 52.035156 100.410156 52.097656 100.5 52.117188 100.601562 C 52.207031 101.117188 51.953125 101.289062 51.480469 101.230469 Z M 54.554688 98.371094 C 54.59375 98.417969 54.628906 98.460938 54.667969 98.507812 C 54.597656 98.535156 54.527344 98.558594 54.457031 98.585938 C 54.488281 98.515625 54.523438 98.441406 54.554688 98.371094 Z M 53.40625 99.253906 C 53.316406 99.253906 53.226562 99.253906 53.140625 99.253906 C 53.167969 99.179688 53.199219 99.105469 53.230469 99.03125 C 53.289062 99.105469 53.347656 99.179688 53.40625 99.253906 Z M 52.886719 99.398438 C 52.953125 99.363281 53.015625 99.332031 53.082031 99.300781 C 53.050781 99.367188 53.019531 99.433594 52.988281 99.5 C 52.953125 99.464844 52.921875 99.429688 52.886719 99.398438 Z M 53.257812 103.144531 C 53.21875 103.105469 53.183594 103.070312 53.144531 103.035156 C 53.1875 103.003906 53.230469 102.945312 53.269531 102.945312 C 53.308594 102.949219 53.34375 103.011719 53.382812 103.050781 C 53.339844 103.082031 53.296875 103.113281 53.257812 103.144531 Z M 53.628906 101.472656 C 53.570312 101.410156 53.472656 101.351562 53.472656 101.289062 C 53.46875 101.203125 53.539062 101.113281 53.574219 101.027344 C 53.628906 101.085938 53.679688 101.144531 53.730469 101.203125 C 53.695312 101.292969 53.664062 101.382812 53.628906 101.472656 Z M 53.847656 99.550781 C 53.722656 99.457031 53.597656 99.359375 53.472656 99.261719 C 53.679688 99.15625 53.890625 99.046875 54.101562 98.9375 C 54.109375 98.933594 54.113281 98.925781 54.121094 98.917969 C 54.117188 98.925781 54.109375 98.933594 54.101562 98.941406 C 54.015625 99.144531 53.933594 99.347656 53.847656 99.550781 Z M 54.570312 100.515625 C 54.535156 100.476562 54.5 100.441406 54.46875 100.40625 C 54.507812 100.375 54.546875 100.316406 54.585938 100.320312 C 54.625 100.324219 54.65625 100.386719 54.691406 100.421875 C 54.652344 100.453125 54.609375 100.484375 54.570312 100.515625 Z M 55.8125 103.6875 C 55.847656 103.65625 55.878906 103.628906 55.914062 103.601562 C 55.941406 103.636719 55.96875 103.667969 56 103.703125 C 55.9375 103.695312 55.875 103.691406 55.8125 103.6875 Z M 56.277344 101.804688 C 56.234375 101.769531 56.1875 101.738281 56.144531 101.703125 C 56.175781 101.671875 56.207031 101.644531 56.242188 101.613281 C 56.269531 101.648438 56.296875 101.679688 56.328125 101.714844 C 56.308594 101.746094 56.292969 101.773438 56.277344 101.804688 Z M 58.535156 96.359375 C 58.570312 96.398438 58.605469 96.4375 58.640625 96.476562 C 58.601562 96.511719 58.5625 96.566406 58.523438 96.566406 C 58.488281 96.5625 58.453125 96.5 58.417969 96.464844 C 58.457031 96.429688 58.496094 96.394531 58.535156 96.359375 Z M 57.882812 99.972656 C 57.910156 100.007812 57.9375 100.039062 57.96875 100.074219 C 57.953125 100.105469 57.9375 100.132812 57.917969 100.164062 C 57.875 100.132812 57.828125 100.097656 57.785156 100.0625 C 57.816406 100.03125 57.847656 100.003906 57.882812 99.972656 Z M 57.933594 103.636719 C 57.964844 103.707031 57.992188 103.777344 58.023438 103.84375 C 57.953125 103.8125 57.882812 103.78125 57.8125 103.75 C 57.855469 103.710938 57.894531 103.675781 57.933594 103.636719 Z M 58.050781 103.871094 C 58.316406 103.863281 58.613281 103.796875 58.679688 104.179688 C 58.429688 104.15625 58.097656 104.300781 58.050781 103.871094 Z M 58.800781 98.144531 C 58.78125 98.144531 58.730469 97.949219 58.761719 97.867188 C 58.785156 97.789062 58.914062 97.675781 58.972656 97.6875 C 59.320312 97.757812 59.660156 97.863281 60.003906 97.957031 C 59.703125 98.597656 59.214844 98.164062 58.800781 98.144531 Z M 60.015625 97.949219 C 60.054688 97.867188 60.09375 97.785156 60.132812 97.707031 C 60.175781 97.753906 60.21875 97.800781 60.265625 97.847656 C 60.183594 97.878906 60.101562 97.914062 60.015625 97.949219 Z M 61.183594 96.367188 C 61.214844 96.402344 61.269531 96.441406 61.265625 96.476562 C 61.265625 96.507812 61.207031 96.539062 61.171875 96.570312 C 61.140625 96.550781 61.109375 96.53125 61.078125 96.511719 C 61.113281 96.464844 61.148438 96.414062 61.183594 96.367188 Z M 61.964844 97.390625 C 61.839844 97.605469 60.984375 97.722656 60.828125 97.554688 C 60.796875 97.523438 60.773438 97.484375 60.746094 97.449219 C 60.839844 97.402344 60.925781 97.34375 61.023438 97.3125 C 61.269531 97.230469 61.519531 97.144531 61.773438 97.085938 C 61.824219 97.074219 61.914062 97.171875 61.964844 97.234375 C 61.992188 97.269531 61.988281 97.351562 61.964844 97.390625 Z M 63.289062 96.960938 C 63.183594 96.960938 63.078125 96.960938 62.96875 96.960938 C 62.972656 96.75 62.972656 96.539062 62.972656 96.324219 C 63.5625 96.390625 63.566406 96.402344 63.289062 96.960938 Z M 62.316406 97.386719 C 62.339844 97.296875 62.339844 97.140625 62.394531 97.121094 C 62.566406 97.050781 62.757812 97.023438 62.945312 96.984375 C 62.851562 97.140625 62.773438 97.3125 62.648438 97.441406 C 62.601562 97.488281 62.429688 97.410156 62.316406 97.386719 Z M 62.84375 98.375 C 62.871094 98.441406 62.898438 98.507812 62.925781 98.574219 C 62.859375 98.546875 62.792969 98.519531 62.722656 98.492188 C 62.765625 98.453125 62.804688 98.414062 62.84375 98.375 Z M 63.082031 98.847656 C 63.054688 98.78125 63.023438 98.714844 62.996094 98.644531 C 63.066406 98.675781 63.132812 98.703125 63.199219 98.730469 C 63.160156 98.769531 63.121094 98.808594 63.082031 98.847656 Z M 63.394531 97.195312 C 63.367188 97.128906 63.339844 97.058594 63.3125 96.992188 C 63.378906 97.019531 63.449219 97.050781 63.519531 97.082031 C 63.476562 97.121094 63.4375 97.15625 63.394531 97.195312 Z M 64.851562 96.804688 C 64.84375 96.828125 64.675781 96.808594 64.675781 96.800781 C 64.664062 96.671875 64.667969 96.542969 64.667969 96.359375 C 64.789062 96.449219 64.886719 96.484375 64.898438 96.535156 C 64.917969 96.621094 64.890625 96.722656 64.851562 96.804688 Z M 66.480469 98.5 C 66.417969 98.480469 66.355469 98.460938 66.292969 98.441406 C 66.328125 98.414062 66.355469 98.371094 66.394531 98.359375 C 66.417969 98.351562 66.453125 98.386719 66.484375 98.402344 C 66.484375 98.433594 66.480469 98.46875 66.480469 98.5 Z M 67.707031 102.179688 C 67.675781 102.140625 67.613281 102.097656 67.617188 102.066406 C 67.621094 102.027344 67.6875 101.996094 67.726562 101.960938 C 67.757812 102 67.789062 102.042969 67.820312 102.082031 C 67.78125 102.113281 67.746094 102.148438 67.707031 102.179688 Z M 68.765625 102.65625 C 68.789062 102.722656 68.816406 102.785156 68.84375 102.851562 C 68.78125 102.824219 68.714844 102.796875 68.648438 102.773438 C 68.6875 102.734375 68.726562 102.695312 68.765625 102.65625 Z M 69.734375 102.132812 C 69.691406 102.097656 69.644531 102.066406 69.601562 102.03125 C 69.632812 102.003906 69.667969 101.972656 69.699219 101.941406 C 69.726562 101.976562 69.753906 102.007812 69.785156 102.042969 C 69.769531 102.074219 69.753906 102.101562 69.734375 102.132812 Z M 70.089844 95.210938 C 70.027344 95.191406 69.964844 95.171875 69.902344 95.15625 C 69.9375 95.125 69.96875 95.082031 70.007812 95.066406 C 70.027344 95.058594 70.066406 95.09375 70.089844 95.109375 C 70.089844 95.144531 70.089844 95.179688 70.089844 95.210938 Z M 70.949219 96.269531 C 70.800781 96.179688 70.574219 96.09375 70.542969 95.964844 C 70.507812 95.804688 70.636719 95.605469 70.691406 95.421875 C 70.820312 95.644531 70.949219 95.871094 71.085938 96.109375 C 71.046875 96.15625 70.957031 96.277344 70.949219 96.269531 Z M 72.152344 96.265625 C 72.058594 96.265625 71.964844 96.1875 71.875 96.144531 C 71.96875 96.101562 72.066406 96.027344 72.160156 96.027344 C 72.25 96.03125 72.34375 96.109375 72.433594 96.152344 C 72.339844 96.195312 72.246094 96.269531 72.152344 96.265625 Z M 73.625 98.890625 C 73.597656 98.859375 73.554688 98.828125 73.542969 98.789062 C 73.535156 98.765625 73.570312 98.730469 73.585938 98.699219 C 73.617188 98.703125 73.652344 98.703125 73.683594 98.707031 C 73.664062 98.769531 73.644531 98.828125 73.625 98.890625 Z M 73.625 95.28125 C 73.597656 95.246094 73.554688 95.21875 73.542969 95.179688 C 73.535156 95.15625 73.570312 95.121094 73.585938 95.089844 C 73.617188 95.089844 73.652344 95.09375 73.683594 95.09375 C 73.664062 95.15625 73.644531 95.21875 73.625 95.28125 Z M 78.539062 93.4375 C 78.5625 93.429688 78.597656 93.464844 78.628906 93.480469 C 78.628906 93.511719 78.625 93.542969 78.625 93.574219 C 78.5625 93.554688 78.5 93.535156 78.4375 93.515625 C 78.472656 93.488281 78.5 93.449219 78.539062 93.4375 Z M 75.464844 103.179688 C 75.5 103.105469 75.53125 103.035156 75.566406 102.964844 C 75.605469 103.007812 75.640625 103.050781 75.679688 103.09375 C 75.609375 103.121094 75.539062 103.148438 75.464844 103.179688 Z M 75.820312 95.167969 C 75.855469 95.132812 75.890625 95.097656 75.925781 95.0625 C 75.960938 95.101562 75.992188 95.140625 76.027344 95.175781 C 75.957031 95.175781 75.890625 95.171875 75.820312 95.167969 Z M 77.871094 103.097656 C 77.800781 103.199219 77.414062 103.078125 77.171875 103.058594 C 77.222656 102.898438 77.304688 102.597656 77.320312 102.601562 C 78 102.738281 77.140625 101.710938 77.855469 101.898438 C 78.003906 101.9375 78.15625 101.972656 78.277344 102 C 78.125 102.449219 78.066406 102.820312 77.871094 103.097656 Z M 78.625 100.796875 C 78.5625 100.777344 78.5 100.757812 78.4375 100.738281 C 78.472656 100.710938 78.5 100.671875 78.539062 100.65625 C 78.5625 100.648438 78.597656 100.683594 78.628906 100.699219 C 78.628906 100.734375 78.625 100.765625 78.625 100.796875 Z M 78.597656 97.210938 C 78.554688 97.175781 78.507812 97.140625 78.464844 97.109375 C 78.496094 97.078125 78.527344 97.046875 78.5625 97.019531 C 78.589844 97.050781 78.617188 97.085938 78.648438 97.117188 C 78.628906 97.148438 78.613281 97.179688 78.597656 97.210938 Z M 81.90625 100.796875 C 81.84375 100.777344 81.78125 100.757812 81.71875 100.738281 C 81.753906 100.710938 81.785156 100.671875 81.824219 100.65625 C 81.84375 100.648438 81.882812 100.683594 81.910156 100.699219 C 81.910156 100.734375 81.90625 100.765625 81.90625 100.796875 Z M 85.003906 102.191406 C 84.917969 102.195312 84.828125 102.128906 84.738281 102.09375 C 84.796875 102.039062 84.859375 101.984375 84.921875 101.929688 C 85.011719 101.960938 85.105469 101.996094 85.199219 102.03125 C 85.132812 102.085938 85.074219 102.183594 85.003906 102.191406 Z M 85.164062 97.539062 C 85.117188 97.503906 85.074219 97.46875 85.027344 97.4375 C 85.0625 97.40625 85.09375 97.375 85.125 97.347656 C 85.152344 97.378906 85.183594 97.414062 85.210938 97.445312 C 85.195312 97.476562 85.179688 97.507812 85.164062 97.539062 Z M 85.460938 100.835938 C 85.433594 100.820312 85.402344 100.804688 85.371094 100.789062 C 85.40625 100.742188 85.4375 100.699219 85.472656 100.65625 C 85.503906 100.6875 85.535156 100.71875 85.5625 100.75 C 85.53125 100.78125 85.496094 100.808594 85.460938 100.835938 Z M 86.148438 102.449219 C 86.078125 102.347656 85.929688 102.214844 85.953125 102.152344 C 86.054688 101.914062 86.207031 101.703125 86.375 101.425781 C 86.613281 101.601562 86.714844 101.679688 86.820312 101.757812 C 86.59375 101.988281 86.371094 102.21875 86.148438 102.449219 Z M 88.359375 94.105469 C 88.390625 94.105469 88.421875 94.109375 88.453125 94.109375 C 88.433594 94.171875 88.414062 94.234375 88.394531 94.296875 C 88.367188 94.261719 88.328125 94.234375 88.3125 94.195312 C 88.304688 94.171875 88.339844 94.136719 88.359375 94.105469 Z M 88.015625 101.464844 C 88.007812 101.46875 87.90625 101.371094 87.914062 101.355469 C 87.996094 101.191406 88.089844 101.039062 88.191406 100.859375 C 88.351562 101 88.414062 101.054688 88.476562 101.109375 C 88.324219 101.230469 88.171875 101.351562 88.015625 101.464844 Z M 90.355469 96.390625 C 90.378906 96.382812 90.414062 96.417969 90.445312 96.433594 C 90.445312 96.464844 90.441406 96.496094 90.441406 96.53125 C 90.378906 96.511719 90.316406 96.492188 90.253906 96.472656 C 90.289062 96.441406 90.316406 96.402344 90.355469 96.390625 Z M 90.355469 101.820312 C 90.328125 101.789062 90.277344 101.753906 90.28125 101.722656 C 90.285156 101.691406 90.34375 101.640625 90.371094 101.644531 C 90.40625 101.648438 90.433594 101.703125 90.464844 101.738281 C 90.429688 101.765625 90.394531 101.792969 90.355469 101.820312 Z M 92.082031 98.171875 C 92.019531 98.152344 91.957031 98.132812 91.894531 98.113281 C 91.929688 98.082031 91.960938 98.042969 92 98.03125 C 92.019531 98.023438 92.058594 98.058594 92.085938 98.074219 C 92.085938 98.105469 92.082031 98.140625 92.082031 98.171875 Z M 95.691406 98.171875 C 95.628906 98.152344 95.566406 98.132812 95.507812 98.113281 C 95.539062 98.082031 95.570312 98.042969 95.609375 98.03125 C 95.628906 98.023438 95.667969 98.058594 95.699219 98.074219 C 95.695312 98.105469 95.695312 98.140625 95.691406 98.171875 Z M 96.214844 92.496094 C 96.28125 92.464844 96.347656 92.433594 96.414062 92.402344 C 96.386719 92.46875 96.363281 92.53125 96.335938 92.597656 C 96.296875 92.5625 96.253906 92.527344 96.214844 92.496094 Z M 97.386719 96.609375 C 97.308594 96.601562 97.234375 96.519531 97.160156 96.46875 C 97.238281 96.425781 97.324219 96.335938 97.390625 96.347656 C 97.484375 96.367188 97.5625 96.464844 97.644531 96.527344 C 97.558594 96.558594 97.46875 96.621094 97.386719 96.609375 Z M 98.191406 94.625 C 98.125 94.660156 97.972656 94.535156 97.855469 94.480469 C 97.964844 94.371094 98.066406 94.25 98.191406 94.152344 C 98.210938 94.136719 98.3125 94.222656 98.417969 94.285156 C 98.347656 94.402344 98.296875 94.570312 98.191406 94.625 Z M 98.5625 101.1875 C 98.53125 101.15625 98.488281 101.125 98.46875 101.085938 C 98.460938 101.066406 98.496094 101.027344 98.507812 101 C 98.546875 101 98.582031 101 98.617188 101 C 98.597656 101.0625 98.582031 101.125 98.5625 101.1875 Z M 99.449219 94.308594 C 99.359375 94.316406 99.265625 94.246094 99.171875 94.210938 C 99.230469 94.15625 99.292969 94.101562 99.351562 94.042969 C 99.445312 94.078125 99.539062 94.113281 99.636719 94.148438 C 99.574219 94.203125 99.515625 94.304688 99.449219 94.308594 Z M 100.539062 94.933594 C 100.511719 94.898438 100.457031 94.863281 100.460938 94.832031 C 100.464844 94.796875 100.519531 94.769531 100.554688 94.738281 C 100.582031 94.773438 100.609375 94.8125 100.636719 94.847656 C 100.605469 94.875 100.574219 94.90625 100.539062 94.933594 Z M 102.507812 97.578125 C 102.480469 97.546875 102.441406 97.515625 102.425781 97.476562 C 102.421875 97.453125 102.457031 97.417969 102.472656 97.386719 C 102.503906 97.390625 102.535156 97.390625 102.566406 97.394531 C 102.546875 97.453125 102.527344 97.515625 102.507812 97.578125 Z M 104.199219 99.179688 C 104.15625 99.144531 104.109375 99.113281 104.066406 99.078125 C 104.097656 99.046875 104.132812 99.019531 104.164062 98.988281 C 104.191406 99.019531 104.21875 99.054688 104.25 99.089844 C 104.234375 99.117188 104.214844 99.148438 104.199219 99.179688 Z M 104.832031 94.609375 C 104.800781 94.59375 104.773438 94.578125 104.742188 94.5625 C 104.777344 94.515625 104.808594 94.46875 104.839844 94.421875 C 104.871094 94.453125 104.898438 94.488281 104.929688 94.519531 C 104.898438 94.546875 104.863281 94.578125 104.832031 94.609375 Z M 105.84375 100.820312 C 105.796875 100.785156 105.753906 100.753906 105.707031 100.71875 C 105.738281 100.6875 105.773438 100.660156 105.804688 100.628906 C 105.832031 100.664062 105.863281 100.695312 105.890625 100.730469 C 105.875 100.757812 105.859375 100.789062 105.84375 100.820312 Z M 107.105469 101.492188 C 107.070312 101.488281 107.019531 101.425781 107.023438 101.398438 C 107.027344 101.363281 107.085938 101.335938 107.117188 101.304688 C 107.148438 101.339844 107.175781 101.378906 107.203125 101.414062 C 107.171875 101.441406 107.132812 101.496094 107.105469 101.492188 Z M 109.148438 93.574219 C 109.085938 93.554688 109.027344 93.535156 108.964844 93.515625 C 108.996094 93.488281 109.027344 93.449219 109.066406 93.4375 C 109.089844 93.429688 109.125 93.464844 109.15625 93.480469 C 109.152344 93.511719 109.152344 93.542969 109.148438 93.574219 Z M 111.066406 99.195312 C 111.035156 99.179688 111.003906 99.164062 110.972656 99.148438 C 111.007812 99.101562 111.042969 99.058594 111.074219 99.011719 C 111.105469 99.046875 111.136719 99.078125 111.164062 99.109375 C 111.132812 99.136719 111.097656 99.167969 111.066406 99.195312 Z M 115.632812 102.15625 C 115.601562 102.117188 115.539062 102.078125 115.542969 102.046875 C 115.550781 102.003906 115.609375 101.972656 115.644531 101.9375 C 115.675781 101.976562 115.710938 102.019531 115.742188 102.058594 C 115.703125 102.089844 115.667969 102.125 115.632812 102.15625 Z M 124.472656 91.320312 C 124.441406 91.21875 124.382812 91.117188 124.390625 91.019531 C 124.394531 90.953125 124.492188 90.894531 124.550781 90.835938 C 124.582031 90.925781 124.613281 91.019531 124.648438 91.113281 C 124.589844 91.183594 124.53125 91.25 124.472656 91.320312 Z M 125.09375 92.152344 C 125.171875 92.121094 125.246094 92.085938 125.324219 92.050781 C 125.289062 92.125 125.253906 92.203125 125.21875 92.277344 C 125.179688 92.238281 125.136719 92.195312 125.09375 92.152344 Z M 125.488281 92.054688 C 125.433594 92.054688 125.382812 92.046875 125.328125 92.046875 C 125.332031 91.9375 125.296875 91.808594 125.34375 91.734375 C 125.488281 91.523438 125.667969 91.335938 125.832031 91.140625 C 125.875 91.230469 125.953125 91.316406 125.964844 91.410156 C 126.015625 91.773438 125.925781 92.046875 125.488281 92.054688 Z M 126.464844 92.636719 C 126.433594 92.601562 126.378906 92.566406 126.382812 92.535156 C 126.390625 92.5 126.445312 92.472656 126.480469 92.441406 C 126.511719 92.476562 126.542969 92.511719 126.574219 92.546875 C 126.539062 92.578125 126.5 92.609375 126.464844 92.636719 Z M 129.097656 93.308594 C 129.066406 93.269531 129.03125 93.230469 128.996094 93.191406 C 129.066406 93.191406 129.136719 93.191406 129.222656 93.191406 C 129.167969 93.242188 129.132812 93.277344 129.097656 93.308594 Z M 48.503906 99.597656 C 48.03125 99.914062 47.546875 100.210938 47.089844 100.546875 C 46.898438 100.6875 46.769531 100.90625 46.613281 101.09375 C 46.625 100.730469 46.492188 100.230469 46.675781 100.042969 C 47.109375 99.605469 47.660156 99.226562 48.230469 99.011719 C 48.554688 98.886719 48.480469 99.351562 48.503906 99.597656 Z M 120.726562 88.433594 C 120.726562 88.433594 120.726562 88.433594 120.726562 88.429688 L 120.738281 88.441406 C 120.734375 88.4375 120.730469 88.4375 120.726562 88.433594 Z M 120.34375 88.203125 C 120.476562 88.210938 120.601562 88.347656 120.726562 88.433594 C 120.648438 88.671875 120.640625 88.992188 120.480469 89.128906 C 120.269531 89.300781 119.9375 89.378906 119.65625 89.382812 C 119.449219 89.382812 119.277344 88.445312 119.507812 88.289062 C 119.710938 88.144531 120.0625 88.183594 120.34375 88.203125 Z M 118.445312 106.828125 C 118.433594 106.832031 118.421875 106.839844 118.40625 106.84375 C 118.414062 106.832031 118.417969 106.816406 118.425781 106.804688 C 118.433594 106.808594 118.441406 106.804688 118.449219 106.808594 C 118.449219 106.8125 118.449219 106.820312 118.445312 106.828125 Z M 118.449219 106.808594 C 118.480469 106.609375 118.453125 106.351562 118.566406 106.246094 C 118.90625 105.929688 119.304688 105.675781 119.691406 105.417969 C 119.78125 105.359375 119.9375 105.355469 120.039062 105.394531 C 120.085938 105.414062 120.117188 105.597656 120.085938 105.6875 C 120.019531 105.878906 119.957031 106.128906 119.808594 106.230469 C 119.398438 106.503906 119.011719 106.878906 118.449219 106.808594 Z M 115.15625 108.785156 C 115.515625 108.078125 116.191406 107.71875 116.816406 107.304688 C 116.875 107.265625 117.027344 107.257812 117.046875 107.289062 C 117.097656 107.375 117.148438 107.523438 117.109375 107.585938 C 116.636719 108.269531 116.023438 108.738281 115.15625 108.785156 Z M 115.152344 108.789062 C 115.152344 108.785156 115.152344 108.785156 115.152344 108.785156 C 115.152344 108.785156 115.152344 108.785156 115.15625 108.785156 C 115.15625 108.785156 115.152344 108.785156 115.152344 108.789062 Z M 113.941406 109.652344 C 113.863281 109.570312 113.851562 109.347656 113.910156 109.238281 C 114.179688 108.722656 114.664062 108.738281 115.152344 108.789062 C 114.886719 109.101562 114.632812 109.429688 114.34375 109.71875 C 114.28125 109.777344 114.015625 109.734375 113.941406 109.652344 Z M 49.875 101.164062 C 50.066406 100.859375 50.316406 100.597656 50.628906 100.222656 C 50.710938 100.4375 50.792969 100.542969 50.785156 100.644531 C 50.777344 100.863281 50.546875 100.984375 50.6875 101.3125 C 50.851562 101.695312 50.390625 101.601562 50.210938 101.550781 C 50.066406 101.511719 49.847656 101.210938 49.875 101.164062 Z M 46.75 101.617188 C 46.785156 101.757812 46.875 101.914062 46.839844 102.035156 C 46.785156 102.214844 46.660156 102.371094 46.554688 102.535156 C 46.359375 102.5 46.164062 102.46875 45.964844 102.4375 C 46.039062 102.21875 46.066406 101.960938 46.203125 101.796875 C 46.3125 101.671875 46.5625 101.671875 46.75 101.617188 Z M 74.136719 93.671875 C 74.132812 93.683594 74.125 93.695312 74.117188 93.707031 C 74.113281 93.707031 74.113281 93.703125 74.109375 93.703125 C 74.109375 93.695312 74.109375 93.683594 74.109375 93.675781 C 74.117188 93.675781 74.128906 93.671875 74.136719 93.671875 Z M 74.109375 93.675781 C 74.007812 93.683594 73.886719 93.714844 73.824219 93.667969 C 73.691406 93.5625 73.582031 93.414062 73.496094 93.269531 C 73.480469 93.238281 73.652344 93.054688 73.664062 93.0625 C 73.816406 93.15625 73.972656 93.253906 74.085938 93.390625 C 74.136719 93.449219 74.109375 93.574219 74.109375 93.675781 Z M 120.769531 104.886719 C 120.734375 104.835938 120.816406 104.703125 120.84375 104.605469 C 121.007812 104.714844 121.167969 104.820312 121.355469 104.941406 C 121.234375 105.039062 121.140625 105.148438 121.105469 105.132812 C 120.980469 105.078125 120.847656 104.996094 120.769531 104.886719 Z M 114.292969 76.574219 C 114.253906 76.484375 114.160156 76.347656 114.1875 76.3125 C 114.296875 76.179688 114.449219 76.078125 114.582031 75.960938 C 114.664062 76.070312 114.746094 76.179688 114.824219 76.289062 C 114.992188 76.398438 115.171875 76.492188 115.324219 76.617188 C 115.378906 76.660156 115.367188 76.78125 115.386719 76.863281 C 115.25 76.867188 115.023438 76.917969 114.988281 76.859375 C 114.890625 76.695312 114.875 76.484375 114.824219 76.292969 C 114.773438 76.308594 114.71875 76.316406 114.675781 76.339844 C 114.546875 76.414062 114.421875 76.496094 114.292969 76.574219 Z M 115.164062 77.898438 C 115.179688 77.8125 115.269531 77.734375 115.328125 77.65625 C 115.375 77.738281 115.476562 77.835938 115.457031 77.90625 C 115.433594 78.003906 115.324219 78.082031 115.253906 78.167969 C 115.21875 78.078125 115.152344 77.980469 115.164062 77.898438 Z M 116.777344 85.4375 C 116.75 85.539062 116.640625 85.625 116.570312 85.714844 C 116.53125 85.625 116.457031 85.527344 116.464844 85.441406 C 116.476562 85.355469 116.574219 85.277344 116.632812 85.195312 C 116.683594 85.277344 116.792969 85.371094 116.777344 85.4375 Z M 121.390625 89.378906 C 121.375 89.3125 121.472656 89.21875 121.519531 89.140625 C 121.597656 89.234375 121.675781 89.328125 121.746094 89.410156 C 121.671875 89.527344 121.625 89.605469 121.574219 89.683594 C 121.507812 89.582031 121.414062 89.488281 121.390625 89.378906 Z M 122.371094 90.402344 C 122.371094 90.402344 122.371094 90.402344 122.375 90.402344 C 122.375 90.402344 122.375 90.40625 122.378906 90.40625 C 122.375 90.410156 122.371094 90.410156 122.371094 90.414062 C 122.371094 90.410156 122.371094 90.40625 122.371094 90.402344 Z M 122.371094 90.414062 C 122.371094 90.511719 122.398438 90.617188 122.363281 90.699219 C 122.324219 90.789062 122.222656 90.851562 122.148438 90.929688 C 122.121094 90.839844 122.039062 90.714844 122.074219 90.664062 C 122.140625 90.558594 122.265625 90.492188 122.371094 90.414062 Z M 115.710938 73.882812 C 115.644531 73.910156 115.578125 73.9375 115.511719 73.960938 C 115.539062 73.894531 115.570312 73.828125 115.597656 73.761719 C 115.632812 73.800781 115.671875 73.84375 115.710938 73.882812 Z M 115.496094 74.003906 C 115.480469 74.011719 115.464844 74.015625 115.449219 74.023438 C 115.457031 74.007812 115.460938 73.996094 115.46875 73.980469 C 115.484375 73.972656 115.496094 73.96875 115.511719 73.960938 C 115.507812 73.976562 115.5 73.992188 115.496094 74.003906 Z M 115.246094 74.109375 C 115.3125 74.082031 115.382812 74.050781 115.449219 74.023438 C 115.421875 74.089844 115.394531 74.160156 115.371094 74.226562 C 115.328125 74.1875 115.289062 74.148438 115.246094 74.109375 Z M 114.375 81.164062 C 114.308594 81.128906 114.246094 81.089844 114.183594 81.050781 C 114.214844 81.019531 114.257812 80.953125 114.28125 80.957031 C 114.351562 80.976562 114.414062 81.019531 114.480469 81.054688 C 114.449219 81.089844 114.414062 81.125 114.375 81.164062 Z M 114.117188 81.710938 C 114.078125 81.746094 114.039062 81.777344 114 81.8125 C 114.003906 81.738281 114.007812 81.664062 114.011719 81.589844 C 114.042969 81.628906 114.078125 81.664062 114.117188 81.710938 Z M 118.601562 88.054688 C 118.5625 88.046875 118.527344 87.984375 118.492188 87.945312 C 118.53125 87.910156 118.570312 87.871094 118.609375 87.832031 C 118.644531 87.875 118.679688 87.917969 118.71875 87.957031 C 118.679688 87.992188 118.636719 88.058594 118.601562 88.054688 Z M 120.972656 88.308594 C 120.898438 88.34375 120.820312 88.382812 120.746094 88.421875 C 120.777344 88.34375 120.808594 88.269531 120.84375 88.191406 C 120.886719 88.230469 120.929688 88.269531 120.972656 88.308594 Z M 120.738281 88.441406 C 120.738281 88.441406 120.726562 88.429688 120.726562 88.429688 C 120.734375 88.429688 120.738281 88.425781 120.746094 88.421875 C 120.742188 88.429688 120.742188 88.433594 120.738281 88.441406 Z M 121.625 88.660156 C 121.558594 88.640625 121.488281 88.617188 121.421875 88.597656 C 121.457031 88.566406 121.488281 88.519531 121.53125 88.503906 C 121.554688 88.496094 121.597656 88.535156 121.628906 88.554688 C 121.628906 88.589844 121.625 88.625 121.625 88.660156 Z M 49.035156 98.886719 C 48.996094 98.867188 48.960938 98.847656 48.925781 98.828125 C 48.964844 98.773438 49.003906 98.71875 49.042969 98.660156 C 49.078125 98.699219 49.140625 98.738281 49.140625 98.777344 C 49.140625 98.816406 49.074219 98.851562 49.035156 98.886719 Z M 48.640625 99.824219 C 48.613281 99.761719 48.582031 99.695312 48.554688 99.628906 C 48.621094 99.660156 48.6875 99.6875 48.75 99.714844 C 48.714844 99.753906 48.675781 99.789062 48.640625 99.824219 Z M 48.503906 99.609375 C 48.503906 99.605469 48.503906 99.601562 48.503906 99.597656 C 48.515625 99.59375 48.523438 99.585938 48.53125 99.582031 C 48.539062 99.597656 48.546875 99.613281 48.554688 99.628906 C 48.539062 99.625 48.523438 99.617188 48.503906 99.609375 Z M 49.449219 99.761719 C 49.414062 99.796875 49.375 99.832031 49.339844 99.867188 C 49.34375 99.792969 49.347656 99.722656 49.351562 99.652344 C 49.382812 99.6875 49.417969 99.726562 49.449219 99.761719 Z M 46.664062 102.785156 C 46.636719 102.71875 46.609375 102.652344 46.585938 102.585938 C 46.648438 102.617188 46.714844 102.648438 46.78125 102.675781 C 46.742188 102.710938 46.703125 102.746094 46.664062 102.785156 Z M 46.535156 102.5625 C 46.542969 102.554688 46.550781 102.542969 46.554688 102.535156 C 46.558594 102.535156 46.5625 102.535156 46.5625 102.535156 C 46.570312 102.550781 46.578125 102.570312 46.585938 102.585938 C 46.566406 102.578125 46.550781 102.570312 46.535156 102.5625 Z M 91.585938 102.671875 C 91.671875 102.632812 91.753906 102.597656 91.839844 102.558594 C 91.804688 102.640625 91.769531 102.726562 91.734375 102.808594 C 91.6875 102.765625 91.636719 102.71875 91.585938 102.671875 Z M 91.84375 102.546875 C 91.847656 102.546875 91.847656 102.550781 91.851562 102.550781 C 91.851562 102.550781 91.851562 102.550781 91.851562 102.554688 C 91.847656 102.554688 91.84375 102.554688 91.839844 102.558594 C 91.84375 102.554688 91.84375 102.550781 91.84375 102.546875 Z M 49.246094 103.042969 C 49.25 103.003906 49.3125 102.972656 49.347656 102.9375 C 49.382812 102.976562 49.414062 103.015625 49.445312 103.058594 C 49.410156 103.089844 49.375 103.125 49.335938 103.15625 C 49.304688 103.117188 49.242188 103.078125 49.246094 103.042969 Z M 66.398438 104.261719 C 66.421875 104.253906 66.460938 104.292969 66.492188 104.308594 C 66.492188 104.339844 66.488281 104.375 66.488281 104.40625 C 66.421875 104.386719 66.359375 104.367188 66.296875 104.347656 C 66.328125 104.320312 66.359375 104.277344 66.398438 104.261719 Z M 121.664062 104.359375 C 121.59375 104.355469 121.519531 104.347656 121.449219 104.34375 C 121.488281 104.3125 121.523438 104.28125 121.5625 104.25 C 121.597656 104.285156 121.632812 104.320312 121.664062 104.359375 Z M 48.617188 104.636719 C 48.683594 104.609375 48.75 104.578125 48.820312 104.550781 C 48.792969 104.617188 48.765625 104.683594 48.738281 104.75 C 48.695312 104.710938 48.65625 104.675781 48.617188 104.636719 Z M 48.835938 104.507812 C 48.847656 104.511719 48.859375 104.515625 48.871094 104.519531 C 48.871094 104.523438 48.867188 104.527344 48.863281 104.53125 C 48.847656 104.535156 48.832031 104.542969 48.820312 104.550781 C 48.824219 104.535156 48.832031 104.519531 48.835938 104.507812 Z M 59.851562 104.5625 C 59.886719 104.601562 59.921875 104.640625 59.953125 104.679688 C 59.882812 104.675781 59.808594 104.671875 59.738281 104.667969 C 59.777344 104.632812 59.8125 104.597656 59.851562 104.5625 Z M 67.730469 104.558594 C 67.757812 104.589844 67.785156 104.625 67.8125 104.65625 C 67.800781 104.6875 67.785156 104.71875 67.773438 104.75 C 67.726562 104.714844 67.683594 104.683594 67.636719 104.652344 C 67.667969 104.621094 67.699219 104.589844 67.730469 104.558594 Z M 71.667969 104.554688 C 71.699219 104.589844 71.730469 104.625 71.757812 104.65625 C 71.742188 104.6875 71.726562 104.71875 71.710938 104.75 C 71.664062 104.71875 71.613281 104.683594 71.566406 104.652344 C 71.597656 104.617188 71.632812 104.585938 71.667969 104.554688 Z M 118.316406 107.054688 C 118.277344 107.015625 118.238281 106.976562 118.199219 106.9375 C 118.269531 106.90625 118.335938 106.875 118.40625 106.84375 C 118.375 106.914062 118.347656 106.984375 118.316406 107.054688 Z M 112.542969 110.441406 C 112.523438 110.449219 112.507812 110.453125 112.492188 110.460938 C 112.5 110.445312 112.503906 110.429688 112.511719 110.414062 C 112.53125 110.40625 112.546875 110.398438 112.5625 110.390625 C 112.554688 110.40625 112.550781 110.421875 112.542969 110.441406 Z M 112.757812 110.304688 C 112.691406 110.332031 112.628906 110.359375 112.5625 110.390625 C 112.589844 110.324219 112.617188 110.257812 112.644531 110.191406 C 112.679688 110.230469 112.71875 110.265625 112.757812 110.304688 Z M 112.492188 110.460938 C 112.460938 110.527344 112.433594 110.597656 112.402344 110.664062 C 112.363281 110.625 112.324219 110.582031 112.289062 110.542969 C 112.355469 110.515625 112.421875 110.488281 112.492188 110.460938 Z M 112.492188 110.460938 " fill-opacity="1" fill-rule="nonzero"/></g><g fill="#ffffff" fill-opacity="1"><g transform="translate(28.289742, 81.060526)"><g><path d="M -10.25 -6.546875 L 0.796875 -4.6875 L 0.5625 -3.34375 L -8.546875 -4.875 L -8.5625 -4.78125 C -8.46875 -4.726562 -8.367188 -4.585938 -8.265625 -4.359375 C -8.171875 -4.128906 -8.101562 -3.84375 -8.0625 -3.5 C -8.03125 -3.15625 -8.050781 -2.765625 -8.125 -2.328125 L -9.25 -2.515625 C -9.175781 -2.953125 -9.191406 -3.335938 -9.296875 -3.671875 C -9.398438 -4.015625 -9.535156 -4.304688 -9.703125 -4.546875 C -9.867188 -4.785156 -10.03125 -4.972656 -10.1875 -5.109375 C -10.34375 -5.253906 -10.429688 -5.335938 -10.453125 -5.359375 Z M -10.25 -6.546875 "/></g></g></g><g fill="#ffffff" fill-opacity="1"><g transform="translate(29.807292, 72.33542)"><g><path d="M 1.640625 -4.53125 C 1.253906 -3.351562 0.476562 -2.59375 -0.6875 -2.25 C -1.851562 -1.914062 -3.304688 -2.035156 -5.046875 -2.609375 C -6.773438 -3.160156 -8.015625 -3.914062 -8.765625 -4.875 C -9.515625 -5.84375 -9.703125 -6.910156 -9.328125 -8.078125 C -8.953125 -9.242188 -8.175781 -9.992188 -7 -10.328125 C -5.820312 -10.671875 -4.367188 -10.566406 -2.640625 -10.015625 C -0.898438 -9.441406 0.34375 -8.675781 1.09375 -7.71875 C 1.84375 -6.769531 2.023438 -5.707031 1.640625 -4.53125 Z M 0.484375 -4.90625 C 0.734375 -5.6875 0.554688 -6.410156 -0.046875 -7.078125 C -0.648438 -7.742188 -1.648438 -8.304688 -3.046875 -8.765625 C -4.429688 -9.210938 -5.570312 -9.34375 -6.46875 -9.15625 C -7.363281 -8.96875 -7.9375 -8.488281 -8.1875 -7.71875 C -8.4375 -6.945312 -8.253906 -6.222656 -7.640625 -5.546875 C -7.023438 -4.867188 -6.023438 -4.304688 -4.640625 -3.859375 C -3.242188 -3.398438 -2.101562 -3.265625 -1.21875 -3.453125 C -0.332031 -3.648438 0.234375 -4.132812 0.484375 -4.90625 Z M 0.484375 -4.90625 "/></g></g></g><g fill="#ffffff" fill-opacity="1"><g transform="translate(33.720325, 61.266899)"><g/></g></g><g fill="#ffffff" fill-opacity="1"><g transform="translate(36.434613, 55.422692)"><g><path d="M -9.171875 -6.4375 L -8.328125 -7.75 L -2.234375 -7.5 L -2.171875 -7.59375 L -4.859375 -13.0625 L -4.015625 -14.359375 L -0.71875 -7.375 L 3.15625 -4.859375 L 2.421875 -3.71875 L -1.453125 -6.234375 Z M -9.171875 -6.4375 "/></g></g></g><g fill="#ffffff" fill-opacity="1"><g transform="translate(43.25253, 45.322523)"><g><path d="M 0.921875 -1 L -7.328125 -8.578125 L -2.75 -13.5625 L -1.859375 -12.75 L -5.515625 -8.765625 L -2.734375 -6.203125 L 0.671875 -9.921875 L 1.5625 -9.109375 L -1.84375 -5.390625 L 0.953125 -2.8125 L 4.65625 -6.859375 L 5.546875 -6.046875 Z M 0.921875 -1 "/></g></g></g><g fill="#ffffff" fill-opacity="1"><g transform="translate(50.886277, 37.18366)"><g><path d="M 1.4375 -1.109375 L 0.3125 -0.234375 L -3.3125 -11.609375 L -2.203125 -12.46875 L 7.90625 -6.140625 L 6.78125 -5.265625 L 3.96875 -7.078125 L 0.390625 -4.296875 Z M -0.015625 -5.515625 L 2.875 -7.78125 L -1.640625 -10.671875 L -1.703125 -10.625 Z M -0.015625 -5.515625 "/></g></g></g><g fill="#ffffff" fill-opacity="1"><g transform="translate(60.747276, 29.768725)"><g><path d="M 1.203125 -0.640625 L -4.046875 -10.53125 L -0.703125 -12.296875 C 0.0664062 -12.710938 0.765625 -12.921875 1.390625 -12.921875 C 2.023438 -12.921875 2.582031 -12.753906 3.0625 -12.421875 C 3.550781 -12.097656 3.953125 -11.644531 4.265625 -11.0625 C 4.609375 -10.40625 4.757812 -9.753906 4.71875 -9.109375 C 4.675781 -8.460938 4.398438 -7.859375 3.890625 -7.296875 L 8.296875 -4.40625 L 6.90625 -3.671875 L 2.765625 -6.421875 C 2.679688 -6.367188 2.597656 -6.320312 2.515625 -6.28125 L 0.359375 -5.140625 L 2.40625 -1.28125 Z M -0.21875 -6.234375 L 1.90625 -7.359375 C 2.695312 -7.773438 3.164062 -8.238281 3.3125 -8.75 C 3.46875 -9.269531 3.390625 -9.828125 3.078125 -10.421875 C 2.753906 -11.015625 2.332031 -11.398438 1.8125 -11.578125 C 1.289062 -11.765625 0.625 -11.644531 -0.1875 -11.21875 L -2.28125 -10.109375 Z M -0.21875 -6.234375 "/></g></g></g><g fill="#ffffff" fill-opacity="1"><g transform="translate(71.233559, 24.383435)"><g><path d="M 4.46875 -10.34375 C 4.226562 -10.84375 3.832031 -11.164062 3.28125 -11.3125 C 2.738281 -11.457031 2.148438 -11.421875 1.515625 -11.203125 C 0.804688 -10.972656 0.296875 -10.613281 -0.015625 -10.125 C -0.328125 -9.644531 -0.398438 -9.15625 -0.234375 -8.65625 C -0.109375 -8.269531 0.101562 -8 0.40625 -7.84375 C 0.71875 -7.6875 1.054688 -7.597656 1.421875 -7.578125 C 1.785156 -7.566406 2.109375 -7.566406 2.390625 -7.578125 L 3.578125 -7.640625 C 3.878906 -7.660156 4.21875 -7.660156 4.59375 -7.640625 C 4.976562 -7.628906 5.363281 -7.566406 5.75 -7.453125 C 6.144531 -7.335938 6.5 -7.144531 6.8125 -6.875 C 7.132812 -6.601562 7.378906 -6.21875 7.546875 -5.71875 C 7.734375 -5.144531 7.75 -4.570312 7.59375 -4 C 7.445312 -3.4375 7.132812 -2.921875 6.65625 -2.453125 C 6.175781 -1.992188 5.53125 -1.628906 4.71875 -1.359375 C 3.570312 -0.972656 2.570312 -0.941406 1.71875 -1.265625 C 0.863281 -1.585938 0.265625 -2.175781 -0.078125 -3.03125 L 1.265625 -3.46875 C 1.421875 -3.070312 1.660156 -2.78125 1.984375 -2.59375 C 2.304688 -2.40625 2.671875 -2.3125 3.078125 -2.3125 C 3.484375 -2.3125 3.898438 -2.382812 4.328125 -2.53125 C 4.816406 -2.6875 5.226562 -2.910156 5.5625 -3.203125 C 5.90625 -3.492188 6.144531 -3.820312 6.28125 -4.1875 C 6.414062 -4.550781 6.414062 -4.925781 6.28125 -5.3125 C 6.164062 -5.664062 5.972656 -5.921875 5.703125 -6.078125 C 5.429688 -6.234375 5.109375 -6.328125 4.734375 -6.359375 C 4.367188 -6.390625 3.984375 -6.394531 3.578125 -6.375 L 2.15625 -6.3125 C 1.238281 -6.269531 0.46875 -6.390625 -0.15625 -6.671875 C -0.789062 -6.960938 -1.226562 -7.46875 -1.46875 -8.1875 C -1.664062 -8.78125 -1.675781 -9.351562 -1.5 -9.90625 C -1.320312 -10.457031 -1 -10.945312 -0.53125 -11.375 C -0.0703125 -11.800781 0.5 -12.128906 1.1875 -12.359375 C 1.863281 -12.585938 2.507812 -12.664062 3.125 -12.59375 C 3.738281 -12.53125 4.269531 -12.335938 4.71875 -12.015625 C 5.164062 -11.703125 5.492188 -11.28125 5.703125 -10.75 Z M 4.46875 -10.34375 "/></g></g></g><g fill="#ffffff" fill-opacity="1"><g transform="translate(82.652309, 20.927462)"><g/></g></g><g fill="#ffffff" fill-opacity="1"><g transform="translate(89.007479, 19.689336)"><g><path d="M 1.359375 -0.078125 L 0.65625 -11.265625 L 7.40625 -11.6875 L 7.484375 -10.484375 L 2.09375 -10.15625 L 2.328125 -6.375 L 7.359375 -6.6875 L 7.4375 -5.484375 L 2.40625 -5.171875 L 2.640625 -1.375 L 8.109375 -1.71875 L 8.1875 -0.515625 Z M 1.359375 -0.078125 "/></g></g></g><g fill="#ffffff" fill-opacity="1"><g transform="translate(100.16626, 19.123451)"><g><path d="M 3.140625 -10.9375 L 5.53125 -6.015625 L 5.609375 -6.015625 L 8.96875 -10.34375 L 10.5625 -10.1875 L 6.484375 -4.96875 L 9.421875 0.953125 L 7.828125 0.796875 L 5.421875 -4.046875 L 5.34375 -4.046875 L 2 0.203125 L 0.421875 0.046875 L 4.578125 -5.171875 L 1.5625 -11.09375 Z M 3.140625 -10.9375 "/></g></g></g><g fill="#ffffff" fill-opacity="1"><g transform="translate(111.918926, 20.488729)"><g><path d="M 1.3125 0.359375 L 4.296875 -10.4375 L 7.9375 -9.421875 C 8.789062 -9.191406 9.441406 -8.847656 9.890625 -8.390625 C 10.347656 -7.941406 10.632812 -7.425781 10.75 -6.84375 C 10.863281 -6.257812 10.832031 -5.644531 10.65625 -5 C 10.488281 -4.375 10.203125 -3.832031 9.796875 -3.375 C 9.390625 -2.914062 8.875 -2.609375 8.25 -2.453125 C 7.632812 -2.304688 6.910156 -2.347656 6.078125 -2.578125 L 3.71875 -3.234375 L 2.625 0.71875 Z M 4.03125 -4.390625 L 6.34375 -3.75 C 7.207031 -3.507812 7.878906 -3.554688 8.359375 -3.890625 C 8.847656 -4.222656 9.179688 -4.707031 9.359375 -5.34375 C 9.546875 -6 9.515625 -6.59375 9.265625 -7.125 C 9.015625 -7.65625 8.445312 -8.039062 7.5625 -8.28125 L 5.28125 -8.921875 Z M 4.03125 -4.390625 "/></g></g></g><g fill="#ffffff" fill-opacity="1"><g transform="translate(123.188041, 23.786587)"><g><path d="M 1.234375 0.5625 L 5.9375 -9.609375 L 12.078125 -6.765625 L 11.5625 -5.671875 L 6.65625 -7.9375 L 5.078125 -4.5 L 9.65625 -2.390625 L 9.15625 -1.296875 L 4.578125 -3.40625 L 2.96875 0.046875 L 7.953125 2.34375 L 7.453125 3.4375 Z M 1.234375 0.5625 "/></g></g></g><g fill="#ffffff" fill-opacity="1"><g transform="translate(133.276399, 28.592217)"><g><path d="M 1.125 0.765625 L 7.421875 -8.5 L 10.546875 -6.375 C 11.273438 -5.882812 11.785156 -5.359375 12.078125 -4.796875 C 12.378906 -4.234375 12.492188 -3.660156 12.421875 -3.078125 C 12.359375 -2.503906 12.140625 -1.941406 11.765625 -1.390625 C 11.347656 -0.785156 10.84375 -0.347656 10.25 -0.078125 C 9.664062 0.179688 9.003906 0.210938 8.265625 0.015625 L 7.765625 5.265625 L 6.46875 4.390625 L 6.96875 -0.5625 C 6.882812 -0.613281 6.804688 -0.664062 6.734375 -0.71875 L 4.703125 -2.09375 L 2.25 1.53125 Z M 5.40625 -3.109375 L 7.390625 -1.765625 C 8.140625 -1.265625 8.773438 -1.066406 9.296875 -1.171875 C 9.828125 -1.273438 10.28125 -1.601562 10.65625 -2.15625 C 11.039062 -2.71875 11.1875 -3.273438 11.09375 -3.828125 C 11.007812 -4.378906 10.585938 -4.910156 9.828125 -5.421875 L 7.859375 -6.75 Z M 5.40625 -3.109375 "/></g></g></g><g fill="#ffffff" fill-opacity="1"><g transform="translate(142.988167, 35.571367)"><g><path d="M 9.46875 -6.578125 L 2.03125 1.796875 L 1.015625 0.90625 L 8.453125 -7.46875 Z M 9.46875 -6.578125 "/></g></g></g><g fill="#ffffff" fill-opacity="1"><g transform="translate(147.659929, 39.67894)"><g><path d="M 0.890625 1.015625 L 9.3125 -6.375 L 13.78125 -1.28125 L 12.875 -0.484375 L 9.3125 -4.546875 L 6.46875 -2.046875 L 9.796875 1.75 L 8.890625 2.53125 L 5.5625 -1.265625 L 2.703125 1.25 L 6.3125 5.375 L 5.40625 6.171875 Z M 0.890625 1.015625 "/></g></g></g><g fill="#ffffff" fill-opacity="1"><g transform="translate(154.949608, 48.08593)"><g><path d="M 14.875 2.953125 L 5.296875 8.75 L 4.625 7.625 L 9 -2.140625 L 8.9375 -2.234375 L 1.40625 2.328125 L 0.703125 1.15625 L 10.28125 -4.640625 L 10.96875 -3.515625 L 6.609375 6.296875 L 6.65625 6.390625 L 14.1875 1.828125 Z M 14.875 2.953125 "/></g></g></g><g fill="#ffffff" fill-opacity="1"><g transform="translate(161.748352, 59.683678)"><g><path d="M 10.828125 7.03125 L 10.359375 5.765625 C 10.816406 5.484375 11.15625 5.132812 11.375 4.71875 C 11.601562 4.300781 11.722656 3.851562 11.734375 3.375 C 11.742188 2.90625 11.664062 2.4375 11.5 1.96875 C 11.257812 1.34375 10.882812 0.832031 10.375 0.4375 C 9.863281 0.0390625 9.238281 -0.191406 8.5 -0.265625 C 7.769531 -0.335938 6.945312 -0.203125 6.03125 0.140625 C 5.113281 0.484375 4.394531 0.921875 3.875 1.453125 C 3.363281 1.984375 3.046875 2.566406 2.921875 3.203125 C 2.796875 3.835938 2.851562 4.46875 3.09375 5.09375 C 3.257812 5.5625 3.503906 5.96875 3.828125 6.3125 C 4.148438 6.664062 4.53125 6.925781 4.96875 7.09375 C 5.414062 7.257812 5.898438 7.304688 6.421875 7.234375 L 6.890625 8.5 C 6.140625 8.632812 5.429688 8.597656 4.765625 8.390625 C 4.097656 8.179688 3.519531 7.828125 3.03125 7.328125 C 2.539062 6.835938 2.164062 6.238281 1.90625 5.53125 C 1.570312 4.644531 1.492188 3.769531 1.671875 2.90625 C 1.847656 2.050781 2.265625 1.273438 2.921875 0.578125 C 3.585938 -0.117188 4.472656 -0.675781 5.578125 -1.09375 C 6.679688 -1.507812 7.707031 -1.664062 8.65625 -1.5625 C 9.613281 -1.457031 10.441406 -1.132812 11.140625 -0.59375 C 11.835938 -0.0625 12.351562 0.644531 12.6875 1.53125 C 12.945312 2.238281 13.050781 2.9375 13 3.625 C 12.945312 4.320312 12.738281 4.960938 12.375 5.546875 C 12.019531 6.140625 11.503906 6.632812 10.828125 7.03125 Z M 10.828125 7.03125 "/></g></g></g><g fill="#ffffff" fill-opacity="1"><g transform="translate(166.085836, 72.060354)"><g><path d="M 0.25 1.34375 L 11.265625 -0.703125 L 12.5 5.9375 L 11.3125 6.15625 L 10.328125 0.84375 L 6.609375 1.53125 L 7.53125 6.5 L 6.359375 6.71875 L 5.4375 1.75 L 1.6875 2.453125 L 2.6875 7.84375 L 1.5 8.0625 Z M 0.25 1.34375 "/></g></g></g><g fill="#ffffff" fill-opacity="1"><g transform="translate(167.585827, 108.492027)"><g><path d="M 10.25 6.546875 L -0.796875 4.6875 L -0.5625 3.34375 L 8.546875 4.875 L 8.5625 4.78125 C 8.46875 4.726562 8.367188 4.585938 8.265625 4.359375 C 8.171875 4.128906 8.101562 3.84375 8.0625 3.5 C 8.03125 3.15625 8.050781 2.765625 8.125 2.328125 L 9.25 2.515625 C 9.175781 2.953125 9.191406 3.335938 9.296875 3.671875 C 9.398438 4.015625 9.535156 4.304688 9.703125 4.546875 C 9.867188 4.785156 10.03125 4.972656 10.1875 5.109375 C 10.34375 5.253906 10.429688 5.335938 10.453125 5.359375 Z M 10.25 6.546875 "/></g></g></g><g fill="#ffffff" fill-opacity="1"><g transform="translate(166.068283, 117.217132)"><g><path d="M -1.640625 4.53125 C -1.253906 3.351562 -0.476562 2.59375 0.6875 2.25 C 1.851562 1.914062 3.304688 2.035156 5.046875 2.609375 C 6.773438 3.160156 8.015625 3.914062 8.765625 4.875 C 9.515625 5.84375 9.703125 6.910156 9.328125 8.078125 C 8.953125 9.242188 8.175781 9.992188 7 10.328125 C 5.820312 10.671875 4.367188 10.566406 2.640625 10.015625 C 0.898438 9.441406 -0.34375 8.675781 -1.09375 7.71875 C -1.84375 6.769531 -2.023438 5.707031 -1.640625 4.53125 Z M -0.484375 4.90625 C -0.734375 5.6875 -0.554688 6.410156 0.046875 7.078125 C 0.648438 7.742188 1.648438 8.304688 3.046875 8.765625 C 4.429688 9.210938 5.570312 9.34375 6.46875 9.15625 C 7.363281 8.96875 7.9375 8.488281 8.1875 7.71875 C 8.4375 6.945312 8.253906 6.222656 7.640625 5.546875 C 7.023438 4.867188 6.023438 4.304688 4.640625 3.859375 C 3.242188 3.398438 2.101562 3.265625 1.21875 3.453125 C 0.332031 3.648438 -0.234375 4.132812 -0.484375 4.90625 Z M -0.484375 4.90625 "/></g></g></g><g fill="#ffffff" fill-opacity="1"><g transform="translate(162.155239, 128.285651)"><g/></g></g><g fill="#ffffff" fill-opacity="1"><g transform="translate(159.440955, 134.12986)"><g><path d="M 9.171875 6.4375 L 8.328125 7.75 L 2.234375 7.5 L 2.171875 7.59375 L 4.859375 13.0625 L 4.015625 14.359375 L 0.71875 7.375 L -3.15625 4.859375 L -2.421875 3.71875 L 1.453125 6.234375 Z M 9.171875 6.4375 "/></g></g></g><g fill="#ffffff" fill-opacity="1"><g transform="translate(152.623038, 144.230029)"><g><path d="M -0.921875 1 L 7.328125 8.578125 L 2.75 13.5625 L 1.859375 12.75 L 5.515625 8.765625 L 2.734375 6.203125 L -0.671875 9.921875 L -1.5625 9.109375 L 1.84375 5.390625 L -0.953125 2.8125 L -4.65625 6.859375 L -5.546875 6.046875 Z M -0.921875 1 "/></g></g></g><g fill="#ffffff" fill-opacity="1"><g transform="translate(144.989297, 152.368888)"><g><path d="M -1.4375 1.109375 L -0.3125 0.234375 L 3.3125 11.609375 L 2.203125 12.46875 L -7.90625 6.140625 L -6.78125 5.265625 L -3.96875 7.078125 L -0.390625 4.296875 Z M 0.015625 5.515625 L -2.875 7.78125 L 1.640625 10.671875 L 1.703125 10.625 Z M 0.015625 5.515625 "/></g></g></g><g fill="#ffffff" fill-opacity="1"><g transform="translate(135.128301, 159.783832)"><g><path d="M -1.203125 0.640625 L 4.046875 10.53125 L 0.703125 12.296875 C -0.0664062 12.710938 -0.765625 12.921875 -1.390625 12.921875 C -2.023438 12.921875 -2.582031 12.753906 -3.0625 12.421875 C -3.550781 12.097656 -3.953125 11.644531 -4.265625 11.0625 C -4.609375 10.40625 -4.757812 9.753906 -4.71875 9.109375 C -4.675781 8.460938 -4.398438 7.859375 -3.890625 7.296875 L -8.296875 4.40625 L -6.90625 3.671875 L -2.765625 6.421875 C -2.679688 6.367188 -2.597656 6.320312 -2.515625 6.28125 L -0.359375 5.140625 L -2.40625 1.28125 Z M 0.21875 6.234375 L -1.90625 7.359375 C -2.695312 7.773438 -3.164062 8.238281 -3.3125 8.75 C -3.46875 9.269531 -3.390625 9.828125 -3.078125 10.421875 C -2.753906 11.015625 -2.332031 11.398438 -1.8125 11.578125 C -1.289062 11.765625 -0.625 11.644531 0.1875 11.21875 L 2.28125 10.109375 Z M 0.21875 6.234375 "/></g></g></g><g fill="#ffffff" fill-opacity="1"><g transform="translate(124.642015, 165.169118)"><g><path d="M -4.46875 10.34375 C -4.226562 10.84375 -3.832031 11.164062 -3.28125 11.3125 C -2.738281 11.457031 -2.148438 11.421875 -1.515625 11.203125 C -0.804688 10.972656 -0.296875 10.613281 0.015625 10.125 C 0.328125 9.644531 0.398438 9.15625 0.234375 8.65625 C 0.109375 8.269531 -0.101562 8 -0.40625 7.84375 C -0.71875 7.6875 -1.054688 7.597656 -1.421875 7.578125 C -1.785156 7.566406 -2.109375 7.566406 -2.390625 7.578125 L -3.578125 7.640625 C -3.878906 7.660156 -4.21875 7.660156 -4.59375 7.640625 C -4.976562 7.628906 -5.363281 7.566406 -5.75 7.453125 C -6.144531 7.335938 -6.5 7.144531 -6.8125 6.875 C -7.132812 6.601562 -7.378906 6.21875 -7.546875 5.71875 C -7.734375 5.144531 -7.75 4.570312 -7.59375 4 C -7.445312 3.4375 -7.132812 2.921875 -6.65625 2.453125 C -6.175781 1.992188 -5.53125 1.628906 -4.71875 1.359375 C -3.570312 0.972656 -2.570312 0.941406 -1.71875 1.265625 C -0.863281 1.585938 -0.265625 2.175781 0.078125 3.03125 L -1.265625 3.46875 C -1.421875 3.070312 -1.660156 2.78125 -1.984375 2.59375 C -2.304688 2.40625 -2.671875 2.3125 -3.078125 2.3125 C -3.484375 2.3125 -3.898438 2.382812 -4.328125 2.53125 C -4.816406 2.6875 -5.226562 2.910156 -5.5625 3.203125 C -5.90625 3.492188 -6.144531 3.820312 -6.28125 4.1875 C -6.414062 4.550781 -6.414062 4.925781 -6.28125 5.3125 C -6.164062 5.664062 -5.972656 5.921875 -5.703125 6.078125 C -5.429688 6.234375 -5.109375 6.328125 -4.734375 6.359375 C -4.367188 6.390625 -3.984375 6.394531 -3.578125 6.375 L -2.15625 6.3125 C -1.238281 6.269531 -0.46875 6.390625 0.15625 6.671875 C 0.789062 6.960938 1.226562 7.46875 1.46875 8.1875 C 1.664062 8.78125 1.675781 9.351562 1.5 9.90625 C 1.320312 10.457031 1 10.945312 0.53125 11.375 C 0.0703125 11.800781 -0.5 12.128906 -1.1875 12.359375 C -1.863281 12.585938 -2.507812 12.664062 -3.125 12.59375 C -3.738281 12.53125 -4.269531 12.335938 -4.71875 12.015625 C -5.164062 11.703125 -5.492188 11.28125 -5.703125 10.75 Z M -4.46875 10.34375 "/></g></g></g><g fill="#ffffff" fill-opacity="1"><g transform="translate(113.223258, 168.625095)"><g/></g></g><g fill="#ffffff" fill-opacity="1"><g transform="translate(106.868088, 169.863218)"><g><path d="M -1.359375 0.078125 L -0.65625 11.265625 L -7.40625 11.6875 L -7.484375 10.484375 L -2.09375 10.15625 L -2.328125 6.375 L -7.359375 6.6875 L -7.4375 5.484375 L -2.40625 5.171875 L -2.640625 1.375 L -8.109375 1.71875 L -8.1875 0.515625 Z M -1.359375 0.078125 "/></g></g></g><g fill="#ffffff" fill-opacity="1"><g transform="translate(95.709314, 170.429105)"><g><path d="M -3.140625 10.9375 L -5.53125 6.015625 L -5.609375 6.015625 L -8.96875 10.34375 L -10.5625 10.1875 L -6.484375 4.96875 L -9.421875 -0.953125 L -7.828125 -0.796875 L -5.421875 4.046875 L -5.34375 4.046875 L -2 -0.203125 L -0.421875 -0.046875 L -4.578125 5.171875 L -1.5625 11.09375 Z M -3.140625 10.9375 "/></g></g></g><g fill="#ffffff" fill-opacity="1"><g transform="translate(83.956641, 169.063819)"><g><path d="M -1.3125 -0.359375 L -4.296875 10.4375 L -7.9375 9.421875 C -8.789062 9.191406 -9.441406 8.847656 -9.890625 8.390625 C -10.347656 7.941406 -10.632812 7.425781 -10.75 6.84375 C -10.863281 6.257812 -10.832031 5.644531 -10.65625 5 C -10.488281 4.375 -10.203125 3.832031 -9.796875 3.375 C -9.390625 2.914062 -8.875 2.609375 -8.25 2.453125 C -7.632812 2.304688 -6.910156 2.347656 -6.078125 2.578125 L -3.71875 3.234375 L -2.625 -0.71875 Z M -4.03125 4.390625 L -6.34375 3.75 C -7.207031 3.507812 -7.878906 3.554688 -8.359375 3.890625 C -8.847656 4.222656 -9.179688 4.707031 -9.359375 5.34375 C -9.546875 6 -9.515625 6.59375 -9.265625 7.125 C -9.015625 7.65625 -8.445312 8.039062 -7.5625 8.28125 L -5.28125 8.921875 Z M -4.03125 4.390625 "/></g></g></g><g fill="#ffffff" fill-opacity="1"><g transform="translate(72.687533, 165.765972)"><g><path d="M -1.234375 -0.5625 L -5.9375 9.609375 L -12.078125 6.765625 L -11.5625 5.671875 L -6.65625 7.9375 L -5.078125 4.5 L -9.65625 2.390625 L -9.15625 1.296875 L -4.578125 3.40625 L -2.96875 -0.046875 L -7.953125 -2.34375 L -7.453125 -3.4375 Z M -1.234375 -0.5625 "/></g></g></g><g fill="#ffffff" fill-opacity="1"><g transform="translate(62.599182, 160.960336)"><g><path d="M -1.125 -0.765625 L -7.421875 8.5 L -10.546875 6.375 C -11.273438 5.882812 -11.785156 5.359375 -12.078125 4.796875 C -12.378906 4.234375 -12.492188 3.660156 -12.421875 3.078125 C -12.359375 2.503906 -12.140625 1.941406 -11.765625 1.390625 C -11.347656 0.785156 -10.84375 0.347656 -10.25 0.078125 C -9.664062 -0.179688 -9.003906 -0.210938 -8.265625 -0.015625 L -7.765625 -5.265625 L -6.46875 -4.390625 L -6.96875 0.5625 C -6.882812 0.613281 -6.804688 0.664062 -6.734375 0.71875 L -4.703125 2.09375 L -2.25 -1.53125 Z M -5.40625 3.109375 L -7.390625 1.765625 C -8.140625 1.265625 -8.773438 1.066406 -9.296875 1.171875 C -9.828125 1.273438 -10.28125 1.601562 -10.65625 2.15625 C -11.039062 2.71875 -11.1875 3.273438 -11.09375 3.828125 C -11.007812 4.378906 -10.585938 4.910156 -9.828125 5.421875 L -7.859375 6.75 Z M -5.40625 3.109375 "/></g></g></g><g fill="#ffffff" fill-opacity="1"><g transform="translate(52.8874, 153.981188)"><g><path d="M -9.46875 6.578125 L -2.03125 -1.796875 L -1.015625 -0.90625 L -8.453125 7.46875 Z M -9.46875 6.578125 "/></g></g></g><g fill="#ffffff" fill-opacity="1"><g transform="translate(48.215641, 149.873616)"><g><path d="M -0.890625 -1.015625 L -9.3125 6.375 L -13.78125 1.28125 L -12.875 0.484375 L -9.3125 4.546875 L -6.46875 2.046875 L -9.796875 -1.75 L -8.890625 -2.53125 L -5.5625 1.265625 L -2.703125 -1.25 L -6.3125 -5.375 L -5.40625 -6.171875 Z M -0.890625 -1.015625 "/></g></g></g><g fill="#ffffff" fill-opacity="1"><g transform="translate(40.925957, 141.466629)"><g><path d="M -14.875 -2.953125 L -5.296875 -8.75 L -4.625 -7.625 L -9 2.140625 L -8.9375 2.234375 L -1.40625 -2.328125 L -0.703125 -1.15625 L -10.28125 4.640625 L -10.96875 3.515625 L -6.609375 -6.296875 L -6.65625 -6.390625 L -14.1875 -1.828125 Z M -14.875 -2.953125 "/></g></g></g><g fill="#ffffff" fill-opacity="1"><g transform="translate(34.127216, 129.868879)"><g><path d="M -10.828125 -7.03125 L -10.359375 -5.765625 C -10.816406 -5.484375 -11.15625 -5.132812 -11.375 -4.71875 C -11.601562 -4.300781 -11.722656 -3.851562 -11.734375 -3.375 C -11.742188 -2.90625 -11.664062 -2.4375 -11.5 -1.96875 C -11.257812 -1.34375 -10.882812 -0.832031 -10.375 -0.4375 C -9.863281 -0.0390625 -9.238281 0.191406 -8.5 0.265625 C -7.769531 0.335938 -6.945312 0.203125 -6.03125 -0.140625 C -5.113281 -0.484375 -4.394531 -0.921875 -3.875 -1.453125 C -3.363281 -1.984375 -3.046875 -2.566406 -2.921875 -3.203125 C -2.796875 -3.835938 -2.851562 -4.46875 -3.09375 -5.09375 C -3.257812 -5.5625 -3.503906 -5.96875 -3.828125 -6.3125 C -4.148438 -6.664062 -4.53125 -6.925781 -4.96875 -7.09375 C -5.414062 -7.257812 -5.898438 -7.304688 -6.421875 -7.234375 L -6.890625 -8.5 C -6.140625 -8.632812 -5.429688 -8.597656 -4.765625 -8.390625 C -4.097656 -8.179688 -3.519531 -7.828125 -3.03125 -7.328125 C -2.539062 -6.835938 -2.164062 -6.238281 -1.90625 -5.53125 C -1.570312 -4.644531 -1.492188 -3.769531 -1.671875 -2.90625 C -1.847656 -2.050781 -2.265625 -1.273438 -2.921875 -0.578125 C -3.585938 0.117188 -4.472656 0.675781 -5.578125 1.09375 C -6.679688 1.507812 -7.707031 1.664062 -8.65625 1.5625 C -9.613281 1.457031 -10.441406 1.132812 -11.140625 0.59375 C -11.835938 0.0625 -12.351562 -0.644531 -12.6875 -1.53125 C -12.945312 -2.238281 -13.050781 -2.9375 -13 -3.625 C -12.945312 -4.320312 -12.738281 -4.960938 -12.375 -5.546875 C -12.019531 -6.140625 -11.503906 -6.632812 -10.828125 -7.03125 Z M -10.828125 -7.03125 "/></g></g></g><g fill="#ffffff" fill-opacity="1"><g transform="translate(29.789741, 117.492208)"><g><path d="M -0.25 -1.34375 L -11.265625 0.703125 L -12.5 -5.9375 L -11.3125 -6.15625 L -10.328125 -0.84375 L -6.609375 -1.53125 L -7.53125 -6.5 L -6.359375 -6.71875 L -5.4375 -1.75 L -1.6875 -2.453125 L -2.6875 -7.84375 L -1.5 -8.0625 Z M -0.25 -1.34375 "/></g></g></g></svg>