<svg xmlns="http://www.w3.org/2000/svg" xmlns:xlink="http://www.w3.org/1999/xlink" width="258" zoomAndPan="magnify" viewBox="0 0 193.5 193.499992" height="258" preserveAspectRatio="xMidYMid meet" version="1.2"><defs><clipPath id="ba441a892f"><path d="M 5.496094 5.496094 L 187.503906 5.496094 L 187.503906 187.503906 L 5.496094 187.503906 Z M 5.496094 5.496094 "/></clipPath><clipPath id="fac614edc8"><path d="M 96.5 5.496094 C 46.242188 5.496094 5.496094 46.242188 5.496094 96.5 C 5.496094 146.761719 46.242188 187.503906 96.5 187.503906 C 146.761719 187.503906 187.503906 146.761719 187.503906 96.5 C 187.503906 46.242188 146.761719 5.496094 96.5 5.496094 Z M 96.5 5.496094 "/></clipPath><clipPath id="d77aded7c3"><path d="M 5.496094 5.496094 L 187.277344 5.496094 L 187.277344 187.277344 L 5.496094 187.277344 Z M 5.496094 5.496094 "/></clipPath><clipPath id="4d2ce7550e"><path d="M 96.386719 5.496094 C 46.191406 5.496094 5.496094 46.191406 5.496094 96.386719 C 5.496094 146.585938 46.191406 187.277344 96.386719 187.277344 C 146.585938 187.277344 187.277344 146.585938 187.277344 96.386719 C 187.277344 46.191406 146.585938 5.496094 96.386719 5.496094 Z M 96.386719 5.496094 "/></clipPath><clipPath id="7910801a76"><path d="M 40.375 40.375 L 152.628906 40.375 L 152.628906 152.628906 L 40.375 152.628906 Z M 40.375 40.375 "/></clipPath><clipPath id="2393d00bd3"><path d="M 96.5 40.375 C 65.503906 40.375 40.375 65.503906 40.375 96.5 C 40.375 127.5 65.503906 152.628906 96.5 152.628906 C 127.5 152.628906 152.628906 127.5 152.628906 96.5 C 152.628906 65.503906 127.5 40.375 96.5 40.375 Z M 96.5 40.375 "/></clipPath></defs><g id="95f1cdb62a"><g clip-rule="nonzero" clip-path="url(#ba441a892f)"><g clip-rule="nonzero" clip-path="url(#fac614edc8)"><path style=" stroke:none;fill-rule:nonzero;fill:#3f48cc;fill-opacity:1;" d="M 5.496094 5.496094 L 187.503906 5.496094 L 187.503906 187.503906 L 5.496094 187.503906 Z M 5.496094 5.496094 "/></g></g><g clip-rule="nonzero" clip-path="url(#d77aded7c3)"><g clip-rule="nonzero" clip-path="url(#4d2ce7550e)"><path style="fill:none;stroke-width:4;stroke-linecap:butt;stroke-linejoin:miter;stroke:#3f48cc;stroke-opacity:1;stroke-miterlimit:4;" d="M 121.647291 -0.00179141 C 54.465291 -0.00179141 -0.00179677 54.465296 -0.00179677 121.647296 C -0.00179677 188.834524 54.465291 243.296383 121.647291 243.296383 C 188.834519 243.296383 243.296378 188.834524 243.296378 121.647296 C 243.296378 54.465296 188.834519 -0.00179141 121.647291 -0.00179141 Z M 121.647291 -0.00179141 " transform="matrix(0.747154,0,0,0.747154,5.497436,5.497432)"/></g></g><g clip-rule="nonzero" clip-path="url(#7910801a76)"><g clip-rule="nonzero" clip-path="url(#2393d00bd3)"><path style=" stroke:none;fill-rule:nonzero;fill:#2b2828;fill-opacity:1;" d="M 40.375 40.375 L 152.628906 40.375 L 152.628906 152.628906 L 40.375 152.628906 Z M 40.375 40.375 "/></g></g><g style="fill:#ffffff;fill-opacity:1;"><g transform="translate(30.382252, 105.999515)"><path style="stroke:none" d="M -11.109375 -3.40625 L -0.46875 -4.5 L -0.328125 -3.21875 L -9.109375 -2.3125 L -9.109375 -2.234375 C -8.992188 -2.191406 -8.863281 -2.078125 -8.71875 -1.890625 C -8.582031 -1.710938 -8.453125 -1.46875 -8.328125 -1.15625 C -8.203125 -0.84375 -8.117188 -0.488281 -8.078125 -0.09375 L -9.15625 0.015625 C -9.195312 -0.378906 -9.304688 -0.722656 -9.484375 -1.015625 C -9.671875 -1.304688 -9.875 -1.539062 -10.09375 -1.71875 C -10.320312 -1.90625 -10.519531 -2.039062 -10.6875 -2.125 C -10.851562 -2.207031 -10.953125 -2.257812 -10.984375 -2.28125 Z M -11.109375 -3.40625 "/></g></g><g style="fill:#ffffff;fill-opacity:1;"><g transform="translate(29.566762, 97.576391)"><path style="stroke:none" d="M 0.34375 -4.59375 C 0.289062 -3.414062 -0.226562 -2.519531 -1.21875 -1.90625 C -2.207031 -1.300781 -3.578125 -1.035156 -5.328125 -1.109375 C -7.054688 -1.179688 -8.382812 -1.566406 -9.3125 -2.265625 C -10.238281 -2.972656 -10.675781 -3.910156 -10.625 -5.078125 C -10.570312 -6.253906 -10.050781 -7.144531 -9.0625 -7.75 C -8.082031 -8.351562 -6.726562 -8.617188 -5 -8.546875 C -3.25 -8.472656 -1.90625 -8.09375 -0.96875 -7.40625 C -0.0390625 -6.71875 0.394531 -5.78125 0.34375 -4.59375 Z M -0.796875 -4.640625 C -0.765625 -5.421875 -1.113281 -6.039062 -1.84375 -6.5 C -2.582031 -6.96875 -3.648438 -7.234375 -5.046875 -7.296875 C -6.429688 -7.359375 -7.507812 -7.1875 -8.28125 -6.78125 C -9.0625 -6.382812 -9.46875 -5.796875 -9.5 -5.015625 C -9.53125 -4.242188 -9.175781 -3.625 -8.4375 -3.15625 C -7.707031 -2.6875 -6.648438 -2.421875 -5.265625 -2.359375 C -3.867188 -2.296875 -2.78125 -2.46875 -2 -2.875 C -1.226562 -3.28125 -0.828125 -3.867188 -0.796875 -4.640625 Z M -0.796875 -4.640625 "/></g></g><g style="fill:#ffffff;fill-opacity:1;"><g transform="translate(30.352535, 86.381879)"><path style="stroke:none" d=""/></g></g><g style="fill:#ffffff;fill-opacity:1;"><g transform="translate(31.368361, 80.30295)"><path style="stroke:none" d="M -10.09375 -3.59375 L -9.640625 -5 L -3.96875 -6.3125 L -3.9375 -6.4375 L -7.8125 -10.78125 L -7.359375 -12.203125 L -2.53125 -6.609375 L 1.671875 -5.28125 L 1.28125 -4.046875 L -2.921875 -5.375 Z M -10.09375 -3.59375 "/></g></g><g style="fill:#ffffff;fill-opacity:1;"><g transform="translate(35.081146, 69.262212)"><path style="stroke:none" d="M 0.59375 -1.15625 L -8.9375 -6.046875 L -6 -11.78125 L -4.96875 -11.25 L -7.3125 -6.671875 L -4.09375 -5.015625 L -1.890625 -9.3125 L -0.859375 -8.796875 L -3.0625 -4.5 L 0.15625 -2.84375 L 2.546875 -7.515625 L 3.578125 -6.984375 Z M 0.59375 -1.15625 "/></g></g><g style="fill:#ffffff;fill-opacity:1;"><g transform="translate(40.044722, 59.81846)"><path style="stroke:none" d="M 1.03125 -1.390625 L 0.21875 -0.296875 L -6 -9.859375 L -5.203125 -10.921875 L 5.734375 -7.671875 L 4.921875 -6.578125 L 1.84375 -7.53125 L -0.734375 -4.0625 Z M -1.4375 -5.078125 L 0.671875 -7.890625 L -4.21875 -9.40625 L -4.265625 -9.34375 Z M -1.4375 -5.078125 "/></g></g><g style="fill:#ffffff;fill-opacity:1;"><g transform="translate(47.246076, 50.480399)"><path style="stroke:none" d="M 0.9375 -0.890625 L -6.421875 -8.671875 L -3.796875 -11.15625 C -3.179688 -11.726562 -2.582031 -12.09375 -2 -12.25 C -1.414062 -12.414062 -0.859375 -12.40625 -0.328125 -12.21875 C 0.191406 -12.039062 0.671875 -11.722656 1.109375 -11.265625 C 1.585938 -10.753906 1.890625 -10.191406 2.015625 -9.578125 C 2.148438 -8.972656 2.046875 -8.351562 1.703125 -7.71875 L 6.515625 -6.171875 L 5.421875 -5.140625 L 0.90625 -6.625 C 0.84375 -6.5625 0.78125 -6.5 0.71875 -6.4375 L -0.984375 -4.828125 L 1.890625 -1.78125 Z M -1.796875 -5.671875 L -0.140625 -7.25 C 0.484375 -7.832031 0.800781 -8.382812 0.8125 -8.90625 C 0.832031 -9.425781 0.625 -9.921875 0.1875 -10.390625 C -0.257812 -10.859375 -0.75 -11.101562 -1.28125 -11.125 C -1.8125 -11.15625 -2.390625 -10.875 -3.015625 -10.28125 L -4.671875 -8.71875 Z M -1.796875 -5.671875 "/></g></g><g style="fill:#ffffff;fill-opacity:1;"><g transform="translate(55.538366, 42.849497)"><path style="stroke:none" d="M 1.484375 -10.65625 C 1.140625 -11.050781 0.695312 -11.25 0.15625 -11.25 C -0.382812 -11.25 -0.921875 -11.066406 -1.453125 -10.703125 C -2.046875 -10.304688 -2.425781 -9.847656 -2.59375 -9.328125 C -2.757812 -8.804688 -2.703125 -8.332031 -2.421875 -7.90625 C -2.203125 -7.59375 -1.925781 -7.398438 -1.59375 -7.328125 C -1.269531 -7.265625 -0.941406 -7.269531 -0.609375 -7.34375 C -0.273438 -7.414062 0.0195312 -7.5 0.28125 -7.59375 L 1.34375 -7.96875 C 1.613281 -8.050781 1.925781 -8.132812 2.28125 -8.21875 C 2.632812 -8.300781 3.003906 -8.335938 3.390625 -8.328125 C 3.785156 -8.316406 4.164062 -8.222656 4.53125 -8.046875 C 4.894531 -7.867188 5.21875 -7.578125 5.5 -7.171875 C 5.820312 -6.679688 5.984375 -6.160156 5.984375 -5.609375 C 5.984375 -5.054688 5.820312 -4.503906 5.5 -3.953125 C 5.1875 -3.410156 4.6875 -2.910156 4 -2.453125 C 3.039062 -1.804688 2.128906 -1.519531 1.265625 -1.59375 C 0.410156 -1.664062 -0.285156 -2.054688 -0.828125 -2.765625 L 0.265625 -3.5 C 0.523438 -3.195312 0.828125 -3 1.171875 -2.90625 C 1.515625 -2.8125 1.875 -2.8125 2.25 -2.90625 C 2.625 -3.007812 2.988281 -3.179688 3.34375 -3.421875 C 3.75 -3.691406 4.070312 -4.003906 4.3125 -4.359375 C 4.550781 -4.710938 4.6875 -5.078125 4.71875 -5.453125 C 4.75 -5.828125 4.65625 -6.171875 4.4375 -6.484375 C 4.238281 -6.785156 3.992188 -6.972656 3.703125 -7.046875 C 3.410156 -7.117188 3.09375 -7.125 2.75 -7.0625 C 2.40625 -7 2.050781 -6.90625 1.6875 -6.78125 L 0.359375 -6.359375 C -0.460938 -6.085938 -1.195312 -6.003906 -1.84375 -6.109375 C -2.5 -6.210938 -3.03125 -6.5625 -3.4375 -7.15625 C -3.769531 -7.65625 -3.925781 -8.179688 -3.90625 -8.734375 C -3.882812 -9.296875 -3.710938 -9.832031 -3.390625 -10.34375 C -3.066406 -10.851562 -2.625 -11.296875 -2.0625 -11.671875 C -1.476562 -12.066406 -0.894531 -12.3125 -0.3125 -12.40625 C 0.269531 -12.5 0.804688 -12.453125 1.296875 -12.265625 C 1.785156 -12.085938 2.191406 -11.78125 2.515625 -11.34375 Z M 1.484375 -10.65625 "/></g></g><g style="fill:#ffffff;fill-opacity:1;"><g transform="translate(65.176997, 36.760028)"><path style="stroke:none" d=""/></g></g><g style="fill:#ffffff;fill-opacity:1;"><g transform="translate(70.620956, 33.946114)"><path style="stroke:none" d="M 8.15625 -8.296875 C 8.5 -7.210938 8.601562 -6.21875 8.46875 -5.3125 C 8.34375 -4.40625 8.007812 -3.628906 7.46875 -2.984375 C 6.9375 -2.335938 6.238281 -1.875 5.375 -1.59375 C 4.507812 -1.3125 3.664062 -1.269531 2.84375 -1.46875 C 2.019531 -1.675781 1.285156 -2.101562 0.640625 -2.75 C 0.00390625 -3.40625 -0.484375 -4.273438 -0.828125 -5.359375 C -1.179688 -6.429688 -1.289062 -7.421875 -1.15625 -8.328125 C -1.03125 -9.242188 -0.691406 -10.019531 -0.140625 -10.65625 C 0.398438 -11.300781 1.101562 -11.765625 1.96875 -12.046875 C 2.832031 -12.328125 3.671875 -12.367188 4.484375 -12.171875 C 5.296875 -11.972656 6.019531 -11.546875 6.65625 -10.890625 C 7.300781 -10.234375 7.800781 -9.367188 8.15625 -8.296875 Z M 6.96875 -7.90625 C 6.675781 -8.789062 6.285156 -9.488281 5.796875 -10 C 5.304688 -10.507812 4.757812 -10.835938 4.15625 -10.984375 C 3.5625 -11.140625 2.957031 -11.113281 2.34375 -10.90625 C 1.71875 -10.707031 1.207031 -10.367188 0.8125 -9.890625 C 0.414062 -9.421875 0.164062 -8.832031 0.0625 -8.125 C -0.03125 -7.425781 0.0664062 -6.632812 0.359375 -5.75 C 0.640625 -4.863281 1.023438 -4.164062 1.515625 -3.65625 C 2.015625 -3.15625 2.5625 -2.828125 3.15625 -2.671875 C 3.757812 -2.523438 4.375 -2.550781 5 -2.75 C 5.613281 -2.957031 6.117188 -3.296875 6.515625 -3.765625 C 6.910156 -4.242188 7.15625 -4.832031 7.25 -5.53125 C 7.34375 -6.226562 7.25 -7.019531 6.96875 -7.90625 Z M 6.96875 -7.90625 "/></g></g><g style="fill:#ffffff;fill-opacity:1;"><g transform="translate(83.086784, 30.168211)"><path style="stroke:none" d="M 1.28125 -0.1875 L -0.21875 -10.78125 L 6.140625 -11.671875 L 6.3125 -10.53125 L 1.234375 -9.8125 L 1.734375 -6.234375 L 6.328125 -6.890625 L 6.484375 -5.75 L 1.890625 -5.09375 L 2.5625 -0.359375 Z M 1.28125 -0.1875 "/></g></g><g style="fill:#ffffff;fill-opacity:1;"><g transform="translate(93.690283, 28.943625)"><path style="stroke:none" d=""/></g></g><g style="fill:#ffffff;fill-opacity:1;"><g transform="translate(99.88233, 28.836555)"><path style="stroke:none" d="M 1.28125 0.140625 L 2.484375 -10.5 L 8.90625 -9.765625 L 8.78125 -8.609375 L 3.65625 -9.1875 L 3.25 -5.609375 L 8.046875 -5.078125 L 7.90625 -3.921875 L 3.109375 -4.453125 L 2.703125 -0.859375 L 7.921875 -0.28125 L 7.796875 0.875 Z M 1.28125 0.140625 "/></g></g><g style="fill:#ffffff;fill-opacity:1;"><g transform="translate(110.480854, 30.163516)"><path style="stroke:none" d="M 4.765625 -9.765625 L 6.21875 -4.734375 L 6.28125 -4.71875 L 10.171875 -8.234375 L 11.625 -7.828125 L 6.9375 -3.609375 L 8.703125 2.46875 L 7.25 2.0625 L 5.765625 -2.90625 L 5.703125 -2.921875 L 1.84375 0.53125 L 0.375 0.109375 L 5.171875 -4.109375 L 3.296875 -10.1875 Z M 4.765625 -9.765625 "/></g></g><g style="fill:#ffffff;fill-opacity:1;"><g transform="translate(121.316387, 33.406012)"><path style="stroke:none" d="M 1.171875 0.5625 L 5.765625 -9.109375 L 9.03125 -7.5625 C 9.789062 -7.195312 10.347656 -6.757812 10.703125 -6.25 C 11.054688 -5.75 11.238281 -5.210938 11.25 -4.640625 C 11.257812 -4.078125 11.128906 -3.507812 10.859375 -2.9375 C 10.585938 -2.363281 10.226562 -1.898438 9.78125 -1.546875 C 9.332031 -1.191406 8.800781 -0.988281 8.1875 -0.9375 C 7.570312 -0.894531 6.882812 -1.050781 6.125 -1.40625 L 4.015625 -2.421875 L 2.34375 1.109375 Z M 4.515625 -3.46875 L 6.59375 -2.46875 C 7.375 -2.101562 8.019531 -2.035156 8.53125 -2.265625 C 9.050781 -2.492188 9.445312 -2.898438 9.71875 -3.484375 C 10 -4.066406 10.0625 -4.625 9.90625 -5.15625 C 9.757812 -5.695312 9.296875 -6.15625 8.515625 -6.53125 L 6.453125 -7.515625 Z M 4.515625 -3.46875 "/></g></g><g style="fill:#ffffff;fill-opacity:1;"><g transform="translate(131.374403, 38.387041)"><path style="stroke:none" d="M 1.0625 0.734375 L 7.171875 -8.046875 L 12.46875 -4.359375 L 11.8125 -3.421875 L 7.578125 -6.359375 L 5.515625 -3.390625 L 9.484375 -0.640625 L 8.828125 0.3125 L 4.859375 -2.4375 L 2.78125 0.53125 L 7.09375 3.53125 L 6.4375 4.484375 Z M 1.0625 0.734375 "/></g></g><g style="fill:#ffffff;fill-opacity:1;"><g transform="translate(140.071295, 44.589785)"><path style="stroke:none" d="M 0.9375 0.90625 L 8.390625 -6.765625 L 10.96875 -4.25 C 11.570312 -3.664062 11.96875 -3.082031 12.15625 -2.5 C 12.351562 -1.925781 12.367188 -1.375 12.203125 -0.84375 C 12.046875 -0.3125 11.742188 0.175781 11.296875 0.625 C 10.804688 1.132812 10.257812 1.46875 9.65625 1.625 C 9.0625 1.78125 8.429688 1.703125 7.765625 1.390625 L 6.4375 6.25 L 5.359375 5.203125 L 6.65625 0.625 C 6.59375 0.570312 6.53125 0.507812 6.46875 0.4375 L 4.78125 -1.1875 L 1.859375 1.8125 Z M 5.59375 -2.03125 L 7.234375 -0.4375 C 7.847656 0.15625 8.414062 0.453125 8.9375 0.453125 C 9.457031 0.453125 9.941406 0.21875 10.390625 -0.25 C 10.835938 -0.707031 11.0625 -1.203125 11.0625 -1.734375 C 11.070312 -2.273438 10.769531 -2.847656 10.15625 -3.453125 L 8.515625 -5.03125 Z M 5.59375 -2.03125 "/></g></g><g style="fill:#ffffff;fill-opacity:1;"><g transform="translate(148.047497, 52.775292)"><path style="stroke:none" d="M 10 -4.609375 L 1.609375 2.03125 L 0.8125 1.015625 L 9.203125 -5.625 Z M 10 -4.609375 "/></g></g><g style="fill:#ffffff;fill-opacity:1;"><g transform="translate(151.763114, 57.422873)"><path style="stroke:none" d="M 0.671875 1.109375 L 9.828125 -4.4375 L 13.171875 1.078125 L 12.171875 1.671875 L 9.5 -2.734375 L 6.421875 -0.859375 L 8.921875 3.265625 L 7.9375 3.859375 L 5.4375 -0.265625 L 2.328125 1.625 L 5.046875 6.109375 L 4.0625 6.703125 Z M 0.671875 1.109375 "/></g></g><g style="fill:#ffffff;fill-opacity:1;"><g transform="translate(157.226381, 66.550782)"><path style="stroke:none" d="M 13.515625 5.265625 L 3.53125 9.125 L 3.078125 7.953125 L 8.8125 -0.515625 L 8.78125 -0.609375 L 0.9375 2.421875 L 0.46875 1.203125 L 10.453125 -2.65625 L 10.90625 -1.484375 L 5.15625 7.015625 L 5.203125 7.109375 L 13.0625 4.078125 Z M 13.515625 5.265625 "/></g></g><g style="fill:#ffffff;fill-opacity:1;"><g transform="translate(161.691887, 78.603371)"><path style="stroke:none" d="M 9.015625 8.421875 L 8.78125 7.140625 C 9.257812 6.953125 9.632812 6.679688 9.90625 6.328125 C 10.175781 5.972656 10.363281 5.570312 10.46875 5.125 C 10.570312 4.6875 10.582031 4.238281 10.5 3.78125 C 10.375 3.132812 10.101562 2.582031 9.6875 2.125 C 9.269531 1.675781 8.71875 1.351562 8.03125 1.15625 C 7.351562 0.96875 6.554688 0.957031 5.640625 1.125 C 4.734375 1.289062 3.992188 1.582031 3.421875 2 C 2.847656 2.425781 2.445312 2.925781 2.21875 3.5 C 1.988281 4.070312 1.9375 4.679688 2.0625 5.328125 C 2.144531 5.785156 2.304688 6.203125 2.546875 6.578125 C 2.796875 6.960938 3.113281 7.269531 3.5 7.5 C 3.882812 7.726562 4.328125 7.847656 4.828125 7.859375 L 5.0625 9.140625 C 4.332031 9.148438 3.671875 9 3.078125 8.6875 C 2.492188 8.375 2.007812 7.945312 1.625 7.40625 C 1.25 6.875 1 6.253906 0.875 5.546875 C 0.707031 4.648438 0.773438 3.804688 1.078125 3.015625 C 1.390625 2.234375 1.910156 1.566406 2.640625 1.015625 C 3.378906 0.472656 4.304688 0.0976562 5.421875 -0.109375 C 6.535156 -0.304688 7.53125 -0.28125 8.40625 -0.03125 C 9.289062 0.21875 10.015625 0.65625 10.578125 1.28125 C 11.148438 1.90625 11.519531 2.664062 11.6875 3.5625 C 11.8125 4.269531 11.789062 4.941406 11.625 5.578125 C 11.46875 6.222656 11.164062 6.796875 10.71875 7.296875 C 10.28125 7.796875 9.710938 8.171875 9.015625 8.421875 Z M 9.015625 8.421875 "/></g></g><g style="fill:#ffffff;fill-opacity:1;"><g transform="translate(163.714734, 90.972814)"><path style="stroke:none" d="M 0.015625 1.296875 L 10.71875 1.203125 L 10.765625 7.65625 L 9.609375 7.671875 L 9.5625 2.515625 L 5.953125 2.546875 L 6 7.375 L 4.84375 7.375 L 4.796875 2.546875 L 1.171875 2.578125 L 1.21875 7.828125 L 0.0625 7.84375 Z M 0.015625 1.296875 "/></g></g><g style="fill:#ffffff;fill-opacity:1;"><g transform="translate(163.524502, 101.809659)"><path style="stroke:none" d=""/></g></g></g></svg>